<?xml version="1.0" standalone="no"?><!DOCTYPE svg PUBLIC "-//W3C//DTD SVG 1.1//EN" "http://www.w3.org/Graphics/SVG/1.1/DTD/svg11.dtd"><svg t="1549785646494" class="icon" style="" viewBox="0 0 1024 1024" version="1.1" xmlns="http://www.w3.org/2000/svg" p-id="12179" xmlns:xlink="http://www.w3.org/1999/xlink" width="200" height="200"><defs><style type="text/css"></style></defs><path d="M672.215 98.99c-159.136 0-288.14 57.263-288.14 127.9h-0.357v97.997a290.803 290.803 0 0 0-31.683-1.744c-158.959 0-287.822 128.862-287.822 287.822 0 158.959 128.862 287.822 287.822 287.822 33.389 0 65.441-5.705 95.259-16.16 52.805 29.237 133.932 47.962 224.922 47.962 154.518 0 280.617-53.989 287.805-121.787h0.335V226.89c-0.002-70.637-129.006-127.9-288.141-127.9z m0 63.567c119.171 0 215.777 28.803 215.777 64.333s-96.606 64.333-215.777 64.333c-119.172 0-215.779-28.803-215.779-64.333s96.607-64.333 215.779-64.333zM447.898 307.159c52.82 29.047 133.672 47.631 224.317 47.631 90.439 0 171.132-18.5 223.959-47.435v115.504c-24.537 29.816-109.664 60.523-223.959 60.523-22.126 0-43.453-1.007-63.55-2.852-33.292-65.373-90.832-116.316-160.767-141.015v-32.356zM632.43 545.735a649.914 649.914 0 0 0 39.785 1.215c90.439 0 171.132-18.501 223.959-47.435v115.566c-24.537 29.816-109.664 60.523-223.959 60.523-13.466 0-26.634-0.377-39.416-1.08a288.797 288.797 0 0 0 7.057-63.561c-0.001-22.434-2.57-44.269-7.426-65.228z m-504.206 65.23c0-123.607 100.203-223.81 223.81-223.81s223.81 100.203 223.81 223.81-100.203 223.811-223.81 223.811-223.81-100.204-223.81-223.811z m543.991 256.056c-61.226 0-116.485-7.604-155.757-19.816 40.332-28.125 73.131-66.301 94.744-110.913 19.668 1.883 40.077 2.881 61.013 2.881 90.439 0 171.132-18.501 223.959-47.435v114.76c-24.537 29.816-109.664 60.523-223.959 60.523z" p-id="12180"></path><path d="M448.827 608.68c17.688 0 32.027-14.34 32.027-32.028s-14.34-32.027-32.027-32.027h-17.316l15.964-15.964c12.508-12.508 12.508-32.786 0-45.294-12.508-12.508-32.787-12.508-45.295 0l-49.406 49.405-49.405-49.405c-12.508-12.508-32.787-12.508-45.295 0-12.507 12.508-12.508 32.786 0 45.294l15.964 15.964h-17.11c-17.689 0-32.028 14.339-32.028 32.028 0 17.688 14.339 32.027 32.028 32.027h63.133v30.516h-63.133c-17.689 0-32.028 14.339-32.028 32.028 0 17.688 14.339 32.027 32.028 32.027h63.133v32.722c0 17.688 14.339 32.027 32.028 32.027s32.028-14.34 32.028-32.027v-32.722h64.709c17.688 0 32.027-14.34 32.027-32.028s-14.34-32.027-32.027-32.027h-64.709V608.68h64.71z" p-id="12181"></path></svg>