<?xml version="1.0" standalone="no"?><!DOCTYPE svg PUBLIC "-//W3C//DTD SVG 1.1//EN" "http://www.w3.org/Graphics/SVG/1.1/DTD/svg11.dtd"><svg t="1550628961858" class="icon" style="" viewBox="0 0 1171 1024" version="1.1" xmlns="http://www.w3.org/2000/svg" p-id="35195" xmlns:xlink="http://www.w3.org/1999/xlink" width="20.583984375" height="18"><defs><style type="text/css"></style></defs><path d="M0 915.379653C0 769.635686 76.219762 641.659824 190.770547 568.994564 251.685799 614.872599 327.46692 642.06857 409.6 642.06857 491.806019 642.06857 567.648792 614.824274 628.591708 568.872291 743.152655 641.44931 819.2 769.365936 819.2 915.379653 819.2 915.379653 819.068197 1018.003536 818.807318 1024L0.390426 1024C0.131037 1018.003975 0 915.379653 0 915.379653ZM950.857143 512 804.571429 512 804.571429 585.142857 950.857143 585.142857 950.857143 731.428571 1024 731.428571 1024 585.142857 1170.285714 585.142857 1170.285714 512 1024 512 1024 365.714286 950.857143 365.714286 950.857143 512ZM409.6 546.133334C560.410556 546.133334 682.666666 423.877222 682.666666 273.066666 682.666666 122.256111 560.410556 0 409.6 0 258.789444 0 136.533334 122.256111 136.533334 273.066666 136.533334 423.877222 258.789444 546.133334 409.6 546.133334Z" p-id="35196" fill="#ffffff"></path></svg>