<?xml version="1.0" standalone="no"?><!DOCTYPE svg PUBLIC "-//W3C//DTD SVG 1.1//EN" "http://www.w3.org/Graphics/SVG/1.1/DTD/svg11.dtd"><svg t="1522986815033" class="icon" style="" viewBox="0 0 1024 1024" version="1.1" xmlns="http://www.w3.org/2000/svg" p-id="2345" xmlns:xlink="http://www.w3.org/1999/xlink" width="200" height="200"><defs><style type="text/css"></style></defs><path d="M976 859.712h-256a32 32 0 0 1 0-64h256a32 32 0 0 1 0 64z" p-id="2346"></path><path d="M848 987.584a32 32 0 0 1-32-32v-255.808a32 32 0 0 1 64 0v255.808a32 32 0 0 1-32 32zM514.304 581.632c-160.96 0-291.84-130.496-291.84-290.816S353.344 0 514.304 0c160.896 0 291.84 130.496 291.84 290.816s-130.944 290.816-291.84 290.816z m0-517.632c-125.632 0-227.84 101.76-227.84 226.816s102.208 226.816 227.84 226.816 227.84-101.76 227.84-226.816S639.936 64 514.304 64z" p-id="2347"></path><path d="M761.024 615.616a31.168 31.168 0 0 1-17.344-5.12 422.592 422.592 0 0 0-101.888-48.064 32 32 0 1 1 19.328-60.992c41.216 13.056 80.64 31.68 117.248 55.296a32 32 0 0 1-17.344 58.88zM48 1024a32 32 0 0 1-32-32c0-226.816 141.248-424 351.488-490.624a32 32 0 1 1 19.328 61.056C203.328 620.544 80 793.216 80 992a32 32 0 0 1-32 32z" p-id="2348"></path></svg>