<?xml version="1.0" standalone="no"?><!DOCTYPE svg PUBLIC "-//W3C//DTD SVG 1.1//EN" "http://www.w3.org/Graphics/SVG/1.1/DTD/svg11.dtd"><svg t="1550629218069" class="icon" style="" viewBox="0 0 1024 1024" version="1.1" xmlns="http://www.w3.org/2000/svg" p-id="39935" xmlns:xlink="http://www.w3.org/1999/xlink" width="18" height="18"><defs><style type="text/css"></style></defs><path d="M123.957895 68.122947a48.505263 48.505263 0 0 0-48.505263 48.505264v751.831578c0 42.253474 24.414316 72.757895 48.505263 72.757895h776.08421c24.090947 0 48.505263-30.504421 48.505263-72.757895v-727.578947c0-42.307368-24.414316-72.757895-48.505263-72.757895H123.957895z m0-48.505263h776.08421c53.571368 0 97.010526 54.272 97.010527 121.263158v727.578947c0 66.937263-43.439158 121.263158-97.010527 121.263158H123.957895c-53.571368 0-97.010526-54.325895-97.010527-121.263158V116.628211a97.010526 97.010526 0 0 1 97.010527-97.010527z" p-id="39936" fill="#ffffff"></path><path d="M518.197895 518.036211c-0.053895 0.808421-0.107789 0.808421-0.10779 0h0.10779z m0 0h38.912v36.648421h-40.151579l-4.688842 101.861052h40.205473v37.295158h-43.115789a296.313263 296.313263 0 0 1-4.042105 26.192842 68.230737 68.230737 0 0 1-29.696 40.744421c-14.336 8.084211-35.516632 12.180211-63.434106 12.180211l-20.965052 0.592842-12.826948-38.965895c14.012632 1.509053 23.282526 2.317474 27.971369 2.317474 13.581474 0 25.977263-1.562947 37.241263-4.688842 11.264-4.257684 19.186526-12.773053 23.875368-25.6l2.317474-12.773053H268.395789c8.569263-45.810526 15.521684-92.16 20.965053-139.15621h-40.151579v-36.648421h43.654737c4.257684-45.810526 7.006316-88.872421 8.138105-129.239579a908.126316 908.126316 0 0 1-23.282526 22.743579l-31.420632-27.378527c42.307368-36.486737 73.889684-86.123789 94.854737-149.018947l40.744421 16.330105c-8.138105 20.156632-13.743158 33.738105-16.869052 40.744421h172.894315v39.558737H344.064c-10.078316 16.276211-21.557895 32.229053-34.330947 47.750737H522.778947c-2.694737 86.554947-4.257684 132.742737-4.581052 138.509474z m-130.425263-93.130106c23.228632 19.779368 43.223579 40.151579 59.930947 61.116632l-23.282526 22.689684c-14.389895-19.024842-34.384842-39.558737-59.984842-61.709474l23.282526-22.096842z m-7.599158 139.695158c22.474105 21.342316 41.121684 41.930105 55.888842 61.709474l-22.743579 22.689684c-13.150316-18.647579-31.797895-39.343158-55.834948-62.302316l22.63579-22.096842z m93.130105 91.944421c1.940211-25.977263 3.664842-59.930947 5.227789-101.861052H329.512421c-4.257684 38.804211-9.108211 72.757895-14.551579 101.861052h158.342737z m6.413474-138.509473l3.449263-100.675369H339.429053c-1.562947 28.294737-3.718737 61.871158-6.413474 100.675369h146.701474z m137.970526-147.833264c-5.497263 12.395789-9.539368 21.342316-12.288 26.785685a891.418947 891.418947 0 0 0 58.799158 172.247579c20.210526-56.266105 31.420632-122.610526 33.792-199.033264h-80.303158z m118.67621 0c-2.694737 94.693053-18.970947 176.181895-48.882526 244.466527a646.197895 646.197895 0 0 0 90.21979 127.461052l-27.324632 32.013474c-31.797895-34.492632-59.984842-73.296842-84.399158-116.412632a396.557474 396.557474 0 0 1-101.861052 115.226948l-22.743579-35.462737a337.92 337.92 0 0 0 102.453894-121.101474 875.52 875.52 0 0 1-64.026947-173.433263 1004.058947 1004.058947 0 0 1-27.917474 36.648421l-25.6-32.013474c41.876211-52.385684 70.386526-123.203368 85.530948-212.453052l41.930105 7.006316c-5.443368 29.103158-12.611368 58.368-21.557895 87.848421h143.791158v40.205473h-39.612632z" p-id="39937" fill="#ffffff"></path><path d="M100.405895 58.745263L957.871158 916.210526l-38.103579 38.103579L62.302316 96.848842z" p-id="39938" fill="#ffffff"></path></svg>