<?xml version="1.0" standalone="no"?><!DOCTYPE svg PUBLIC "-//W3C//DTD SVG 1.1//EN" "http://www.w3.org/Graphics/SVG/1.1/DTD/svg11.dtd"><svg t="1522986309586" class="icon" style="" viewBox="0 0 1315 1024" version="1.1" xmlns="http://www.w3.org/2000/svg" p-id="2109" xmlns:xlink="http://www.w3.org/1999/xlink" width="256.8359375" height="200"><defs><style type="text/css"></style></defs><path d="M289.842589 578.754798C129.759001 578.754798 0 449.199319 0 289.377399 0 129.55548 129.759001 0 289.842589 0 449.897104 0 579.656104 129.55548 579.656104 289.377399 579.656104 449.199319 449.897104 578.754798 289.842589 578.754798ZM289.842589 44.51289C154.355934 44.51289 44.51289 154.152413 44.51289 289.377399 44.51289 424.631459 154.355934 534.241908 289.842589 534.241908 425.329245 534.241908 535.143214 424.631459 535.143214 289.377399 535.143214 154.152413 425.329245 44.51289 289.842589 44.51289Z" p-id="2110"></path><path d="M140.254855 275.392618C148.948098 266.699375 163.078251 266.699375 171.771493 275.392618L266.321408 369.884384C275.014651 378.577626 275.014651 392.678705 266.321408 401.371948 257.628166 410.06519 243.498012 410.06519 234.80477 401.371948L140.254855 306.880182C131.532538 298.186939 131.532538 284.08586 140.254855 275.392618Z" p-id="2111"></path><path d="M452.281204 217.65088C460.974446 226.344123 460.974446 240.445202 452.281204 249.138444L294.668938 406.605338C285.975696 415.29858 271.874617 415.29858 263.1523 406.605338 254.459057 397.912095 254.459057 383.811016 263.1523 375.117774L420.764566 217.65088C429.457808 208.957638 443.558887 208.957638 452.281204 217.65088Z" p-id="2112"></path><path d="M656.906758 867.696082 467.923225 867.696082C467.923225 851.995911 464.695968 837.167973 459.724248 823.183191L670.513572 823.183191C718.689835 823.183191 757.73674 784.136286 757.73674 735.960023L757.73674 242.596706C757.73674 194.420443 718.689835 155.373538 670.513572 155.373538L557.385122 155.373538C550.872459 139.760591 542.847927 124.932652 533.805792 110.860647L656.906758 110.860647C737.181147 110.860647 802.278705 175.929131 802.278705 256.232595L802.278705 722.324134C802.278705 802.598524 737.181147 867.696082 656.906758 867.696082ZM200.787734 867.696082 189.884838 867.696082C109.610449 867.696082 44.51289 802.598524 44.51289 722.324134L44.51289 420.270301C57.131175 440.33163 72.046337 458.735718 89.025781 475.046451L89.025781 735.960023C89.025781 784.136286 128.10176 823.183191 176.248949 823.183191L208.986712 823.183191C203.985917 837.167973 200.787734 851.995911 200.787734 867.696082Z" p-id="2113"></path><path d="M1025.337422 1023.970926C939.277229 1023.970926 869.498694 954.192391 869.498694 868.161272 869.498694 782.101079 939.277229 712.322544 1025.337422 712.322544 1111.368541 712.322544 1181.147076 782.101079 1181.147076 868.161272 1181.147076 954.192391 1111.368541 1023.970926 1025.337422 1023.970926ZM1025.337422 756.835434C963.845088 756.835434 914.011584 806.668938 914.011584 868.161272 914.011584 929.624532 963.845088 979.458035 1025.337422 979.458035 1086.800681 979.458035 1136.634185 929.624532 1136.634185 868.161272 1136.634185 806.668938 1086.800681 756.835434 1025.337422 756.835434ZM334.35548 1023.970926C248.033617 1023.970926 178.080636 954.192391 178.080636 868.161272 178.080636 782.101079 248.033617 712.322544 334.35548 712.322544 420.648268 712.322544 490.630324 782.101079 490.630324 868.161272 490.630324 954.192391 420.648268 1023.970926 334.35548 1023.970926ZM334.35548 756.835434C272.630551 756.835434 222.593526 806.668938 222.593526 868.161272 222.593526 929.624532 272.630551 979.458035 334.35548 979.458035 396.080409 979.458035 446.117433 929.624532 446.117433 868.161272 446.117433 806.668938 396.080409 756.835434 334.35548 756.835434Z" p-id="2114"></path><path d="M1158.236457 867.696082C1158.556275 864.032709 1159.341283 860.514708 1159.341283 856.793186 1159.341283 845.047132 1157.160704 833.911641 1154.078819 823.183191L1314.714821 823.183191 1314.714821 867.696082 1158.236457 867.696082ZM914.011584 856.793186C914.011584 860.514708 914.796593 864.032709 915.116411 867.696082L713.22385 867.696082 713.22385 823.183191 919.274049 823.183191C916.192164 833.911641 914.011584 845.047132 914.011584 856.793186Z" p-id="2115"></path><path d="M1292.443839 489.729018C1304.742306 489.729018 1314.714821 499.701533 1314.714821 512L1314.714821 845.425099C1314.714821 857.723566 1304.742306 867.696082 1292.443839 867.696082 1280.145372 867.696082 1270.172856 857.723566 1270.172856 845.425099L1270.172856 512C1270.172856 499.701533 1280.145372 489.729018 1292.443839 489.729018Z" p-id="2116"></path><path d="M757.765815 244.428393l356.161272 0 0 44.51289-356.161272 0 0-44.51289Z" p-id="2117"></path><path d="M1186.642135 377.967064 1038.50812 377.967064C1006.38092 377.967064 980.359341 404.017717 980.359341 436.115843L980.359341 497.898921C980.359341 530.026122 1006.38092 556.0477 1038.50812 556.0477L1190.218285 556.0477C1222.345486 556.0477 1248.367064 530.026122 1248.367064 497.898921L1248.367064 484.84452 1270.376377 522.902896 1289.187507 512.029074C1276.68552 562.792959 1231.213174 600.560591 1176.611471 600.560591L1052.114935 600.560591C987.889608 600.560591 935.817376 548.517433 935.817376 484.263032L935.817376 449.751732C935.817376 385.526405 987.889608 333.454174 1052.114935 333.454174L1160.9113 333.454174 1186.642135 377.967064Z" p-id="2118"></path><path d="M1076.159455 271.176831 1111.89188 244.515616 1298.578535 494.351846 1262.84611 520.983986 1076.159455 271.176831Z" p-id="2119"></path></svg>