<?xml version="1.0" standalone="no"?><!DOCTYPE svg PUBLIC "-//W3C//DTD SVG 1.1//EN" "http://www.w3.org/Graphics/SVG/1.1/DTD/svg11.dtd"><svg t="1550645092425" class="icon" style="" viewBox="0 0 1134 1024" version="1.1" xmlns="http://www.w3.org/2000/svg" p-id="6823" xmlns:xlink="http://www.w3.org/1999/xlink" width="15.50390625" height="14"><defs><style type="text/css"></style></defs><path d="M1129.189185 411.884839a206.82961 206.82961 0 0 1 0-49.404643 41.868342 41.868342 0 1 0-82.480634-14.444578 276.540399 276.540399 0 0 0 0 70.129472c0 11.304452 1.674734 21.98088 1.465392 32.029282a90.644961 90.644961 0 0 1-23.027588 50.870036c-6.280251 8.164327-13.188528 15.90997-19.887462 23.655613l-5.024201 5.861568c-41.868342 47.311227-81.433925 96.087845-120.580825 143.18973l-82.689976 99.018629c-41.868342 48.98596-83.736684 99.646654-124.348976 150.516689a33.704015 33.704015 0 0 1-41.868342 14.444578L383.09533 866.784376l-142.561705-40.821634-18.840754-5.861568a360.486425 360.486425 0 0 0-41.868342-11.932477c-47.101885-9.211035-73.269599-38.728216-87.714176-99.018629a202.01475 202.01475 0 0 1 11.932477-126.861077 59.871729 59.871729 0 0 1 46.892543-12.560502 491.743677 491.743677 0 0 1 74.106966 19.259437q173.125594 48.567277 345.832505 97.553237a47.72991 47.72991 0 0 0 54.010161-15.281945c65.314614-74.734991 131.466594-148.632614 196.781208-223.576946 54.010161-62.802513 106.764272-125.605026 160.35575-188.40754 23.23693-27.214422 47.311227-53.382136 69.710789-81.224583s16.328653-52.544769-20.934171-61.337121Q783.566022 59.353399 536.333462 2.831137a62.802513 62.802513 0 0 0-67.826714 20.934171c-104.670855 118.906091-211.016444 236.137449-316.94335 353.787491l-34.541382 38.100191A445.269818 445.269818 0 0 0 62.802513 480.967604c-1.884075 2.930784-3.349467 5.861568-5.233543 8.58301l-1.884075 2.721442A303.754822 303.754822 0 0 0 7.745643 729.665555c21.98088 91.691669 73.47894 146.539197 153.02879 161.611801a290.14761 290.14761 0 0 1 32.866649 9.420377l20.934171 6.698934 142.561705 40.821634 248.697952 69.920131a140.049604 140.049604 0 0 0 38.728216 5.861568 115.556624 115.556624 0 0 0 92.529036-48.357935c40.193608-50.24201 82.271292-100.484021 123.092926-149.051298l83.736684-99.22797c38.937558-46.892543 79.131166-95.250478 119.534116-141.93368l5.024201-5.652226c7.745643-8.792352 15.281945-17.794045 22.608905-27.005081a167.473368 167.473368 0 0 0 41.868342-101.321388c-2.302759-14.863261-3.768151-27.005081-3.768151-39.565583zM443.385742 197.72827a359.649058 359.649058 0 0 1 24.283639-29.726523 150.307348 150.307348 0 0 1 22.190221-15.90997l114.509916 29.098497 185.267413 47.939252c8.792352 2.302759 20.934171 3.558809 25.121005 9.420377a57.778312 57.778312 0 0 1 6.908277 27.005081c0 1.884075-2.930784 4.396176-4.605518 6.489593-49.613985 68.245398-28.051789 62.802513-110.741765 39.774925s-167.473368-47.101885-249.954002-71.176182c-32.866649-9.420377-34.750724-16.747337-13.607211-43.124392z" p-id="6824" fill="#ffffff"></path></svg>