<?xml version="1.0" standalone="no"?><!DOCTYPE svg PUBLIC "-//W3C//DTD SVG 1.1//EN" "http://www.w3.org/Graphics/SVG/1.1/DTD/svg11.dtd"><svg t="1550646103985" class="icon" style="" viewBox="0 0 1024 1024" version="1.1" xmlns="http://www.w3.org/2000/svg" p-id="33437" xmlns:xlink="http://www.w3.org/1999/xlink" width="14" height="14"><defs><style type="text/css"></style></defs><path d="M490.755 135.11c-222.95 0-403.683 181.474-403.683 405.335 0 215.116 166.888 391.09 377.758 404.51a408.247 408.247 0 0 0 51.85 0c210.862-13.42 377.756-189.395 377.756-404.51 0-223.861-180.74-405.334-403.68-405.334z m0 760c-195.08 0-353.222-158.79-353.222-354.665 0-195.882 158.141-354.667 353.222-354.667 195.078 0 353.219 158.785 353.219 354.667 0 195.876-158.14 354.666-353.219 354.666z m175.526-474.86l-62.178-63.645-29.878 28.784 61.367 64.049 30.689-29.187z m23.408 34.452l-137.264 22.701c-4.037-41.347-6.46-84.716-6.86-127.285h-44.817c0.408 41.349 2.828 87.966 7.678 134.583l-92.056 15.403 6.867 37.298 89.629-14.596c9.28 69.319 23.817 134.18 44.408 173.499 18.566 34.458 42.387 47.833 69.029 47.833 23.82 0 41.177-16.617 48.049-47.019l16.146-71.349-40.777-12.158-12.52 62.423c-7.262 34.861-27.85 23.514-40.77-2.834-17.767-35.27-31.088-92.423-39.567-157.687l138.076-23.11-5.25-37.702zM395.785 348.904c-23.01 74.993-57.329 137.014-92.452 186.062l14.128 51.076c14.134-17.834 27.455-36.477 40.374-55.535v212.009h44.815V453.083c14.535-29.187 26.64-59.18 36.335-90.396l-43.2-13.783z" p-id="33438" fill="#ffffff"></path></svg>