<?xml version="1.0" standalone="no"?><!DOCTYPE svg PUBLIC "-//W3C//DTD SVG 1.1//EN" "http://www.w3.org/Graphics/SVG/1.1/DTD/svg11.dtd"><svg t="1550565856701" class="icon" style="" viewBox="0 0 1181 1024" version="1.1" xmlns="http://www.w3.org/2000/svg" p-id="4343" xmlns:xlink="http://www.w3.org/1999/xlink" width="16.146484375" height="14"><defs><style type="text/css"></style></defs><path d="M433.230769 0h315.076923a78.769231 78.769231 0 0 1 78.769231 78.769231v236.307692a78.769231 78.769231 0 0 1-78.769231 78.769231H433.230769a78.769231 78.769231 0 0 1-78.769231-78.769231V78.769231a78.769231 78.769231 0 0 1 78.769231-78.769231zM78.769231 630.153846h315.076923a78.769231 78.769231 0 0 1 78.769231 78.769231v236.307692a78.769231 78.769231 0 0 1-78.769231 78.769231H78.769231a78.769231 78.769231 0 0 1-78.769231-78.769231V708.923077a78.769231 78.769231 0 0 1 78.769231-78.769231z m708.923077 0h315.076923a78.769231 78.769231 0 0 1 78.769231 78.769231v236.307692a78.769231 78.769231 0 0 1-78.769231 78.769231H787.692308a78.769231 78.769231 0 0 1-78.769231-78.769231V708.923077a78.769231 78.769231 0 0 1 78.769231-78.769231z" p-id="4344"></path><path d="M630.153846 472.615385h275.692308a78.769231 78.769231 0 0 1 78.769231 78.76923v315.076923h-78.769231V590.769231a39.384615 39.384615 0 0 0-39.384616-39.384616H315.076923a39.384615 39.384615 0 0 0-39.384615 39.384616v275.692307h-78.769231V551.384615a78.769231 78.769231 0 0 1 78.769231-78.76923h275.692307v-78.769231h78.769231v78.769231z" p-id="4345"></path></svg>