<?xml version="1.0" standalone="no"?><!DOCTYPE svg PUBLIC "-//W3C//DTD SVG 1.1//EN" "http://www.w3.org/Graphics/SVG/1.1/DTD/svg11.dtd"><svg t="1535957954416" class="icon" style="" viewBox="0 0 1024 1024" version="1.1" xmlns="http://www.w3.org/2000/svg" p-id="16177" xmlns:xlink="http://www.w3.org/1999/xlink" width="200" height="200"><defs><style type="text/css"></style></defs><path d="M 950.656 329.344 l -320 -320 A 32.256 32.256 0 0 0 608 0 h -448 C 107.072 0 64 43.072 64 96 v 832 c 0 52.928 43.072 96 96 96 h 704 c 52.928 0 96 -43.072 96 -96 v -576 a 32.256 32.256 0 0 0 -9.344 -22.656 Z M 640 109.248 L 850.752 320 H 672 a 32 32 0 0 1 -32 -32 V 109.248 Z M 896 928 c 0 17.6 -14.4 32 -32 32 h -704 a 32.064 32.064 0 0 1 -32 -32 v -832 a 32 32 0 0 1 32 -32 H 576 v 224 c 0 52.928 43.072 96 96 96 H 896 v 544 Z" fill="#444444" p-id="16178"></path><path d="M 374.656 521.344 a 32 32 0 0 0 -45.248 0 l -128 128 a 32 32 0 0 0 0 45.248 l 128 128 a 32.128 32.128 0 0 0 45.248 0.064 a 32 32 0 0 0 0 -45.248 L 269.248 672 l 105.344 -105.344 a 32 32 0 0 0 0.064 -45.312 Z M 649.344 521.344 a 32 32 0 0 0 0 45.248 l 105.344 105.344 l -105.344 105.344 a 32 32 0 0 0 45.312 45.376 l 128 -128 a 32 32 0 0 0 0 -45.248 l -128 -128 a 32 32 0 0 0 -45.312 -0.064 Z M 548.608 447.36 a 31.808 31.808 0 0 0 -36.288 27.072 l -56 384.96 a 32 32 0 0 0 63.36 9.216 l 56 -385.024 a 32 32 0 0 0 -27.072 -36.224 Z" fill="#444444" p-id="16179"></path></svg>