<?xml version="1.0" standalone="no"?><!DOCTYPE svg PUBLIC "-//W3C//DTD SVG 1.1//EN" "http://www.w3.org/Graphics/SVG/1.1/DTD/svg11.dtd"><svg t="1553058826278" class="icon" style="" viewBox="0 0 1024 1024" version="1.1" xmlns="http://www.w3.org/2000/svg" p-id="10579" xmlns:xlink="http://www.w3.org/1999/xlink" width="55" height="55"><defs><style type="text/css"></style></defs><path d="M841.57 0H138.713C40.25 0 40.25 96.886 40.25 96.886V920.97s0 96.965 100.037 96.965H721.92l215.04-169.67v-751.3S935.62 0 841.728 0z m46.947 824.084L694.745 969.492H161.477c-72.704 0-72.704-72.704-72.704-72.704v-775.64s0-72.705 72.704-72.705h654.415c72.704 0 72.704 72.704 72.704 72.704v702.937z" p-id="10580"></path><path d="M161.477 609.359h637.007v55.453H161.477z m0-221.578h637.007v55.375H161.477z m0-221.578h304.68v55.375H161.397v-55.375z m720.108 564.382H632.281v249.304h55.453V785.96h193.851z" p-id="10581"></path></svg>