<?xml version="1.0" standalone="no"?><!DOCTYPE svg PUBLIC "-//W3C//DTD SVG 1.1//EN" "http://www.w3.org/Graphics/SVG/1.1/DTD/svg11.dtd"><svg t="1550568571273" class="icon" style="" viewBox="0 0 1024 1024" version="1.1" xmlns="http://www.w3.org/2000/svg" p-id="36298" xmlns:xlink="http://www.w3.org/1999/xlink" width="18" height="18"><defs><style type="text/css"></style></defs><path d="M549.546667 901.12c-6.826667-3.413333-10.24-10.24-13.653334-13.653333-10.24-10.24-23.893333-20.48-44.373333-30.72-17.066667-6.826667-34.133333-6.826667-44.373333-6.826667H443.733333c-6.826667-20.48-23.893333-34.133333-44.373333-37.546667-30.72-6.826667-54.613333 6.826667-71.68 17.066667 0-6.826667 3.413333-17.066667 6.826667-23.893333 6.826667-23.893333 10.24-47.786667 6.826666-68.266667-3.413333-17.066667-17.066667-30.72-37.546666-30.72-47.786667-3.413333-85.333333 23.893333-119.466667 44.373333-34.133333 23.893333-58.026667 37.546667-81.92 30.72-27.306667-10.24-30.72-85.333333-17.066667-150.186666 10.24-58.026667 34.133333-170.666667 88.746667-221.866667 20.48-17.066667 47.786667-34.133333 68.266667-27.306667 27.306667 10.24 47.786667 54.613333 54.613333 105.813334 3.413333 20.48 20.48 37.546667 44.373333 37.546666 20.48-3.413333 37.546667-20.48 37.546667-44.373333-6.826667-85.333333-47.786667-150.186667-102.4-174.08-34.133333-13.653333-85.333333-17.066667-150.186667 40.96C54.613333 409.6 30.72 518.826667 10.24 614.4c-10.24 47.786667-34.133333 204.8 68.266667 242.346667 61.44 20.48 112.64-10.24 153.6-37.546667 6.826667-3.413333 13.653333-10.24 20.48-13.653333-6.826667 23.893333-13.653333 54.613333 6.826666 81.92 27.306667 37.546667 61.44 44.373333 109.226667 13.653333 3.413333 0 3.413333-3.413333 6.826667-3.413333 3.413333 10.24 13.653333 20.48 27.306666 27.306666 17.066667 6.826667 34.133333 10.24 44.373334 10.24h13.653333c6.826667 3.413333 10.24 6.826667 20.48 17.066667l20.48 20.48c6.826667 6.826667 17.066667 6.826667 23.893333 6.826667 13.653333 0 23.893333-6.826667 30.72-17.066667 17.066667-20.48 10.24-47.786667-6.826666-61.44zM699.733333 395.946667c17.066667 6.826667 37.546667-10.24 44.373334-23.893334l98.986666-262.826666c6.826667-20.48 3.413333-37.546667-17.066666-44.373334-20.48-6.826667-34.133333 3.413333-40.96 23.893334l-102.4 262.826666c-6.826667 17.066667-3.413333 37.546667 17.066666 44.373334zM972.8 37.546667c-40.96-17.066667-92.16 17.066667-105.813333 54.613333l-92.16 252.586667 153.6 58.026666 92.16-252.586666c10.24-30.72-6.826667-95.573333-47.786667-112.64zM621.226667 754.346667c-10.24 27.306667-27.306667 157.013333-3.413334 201.386666l-10.24 27.306667c-3.413333 10.24 0 20.48 10.24 23.893333h6.826667c6.826667 0 13.653333-3.413333 17.066667-13.653333l10.24-30.72c44.373333-20.48 109.226667-122.88 122.88-157.013333l129.706666-348.16-153.6-51.2-129.706666 348.16z" p-id="36299" fill="#ffffff"></path></svg>