<?xml version="1.0" standalone="no"?><!DOCTYPE svg PUBLIC "-//W3C//DTD SVG 1.1//EN" "http://www.w3.org/Graphics/SVG/1.1/DTD/svg11.dtd"><svg t="1550568131969" class="icon" style="" viewBox="0 0 1024 1024" version="1.1" xmlns="http://www.w3.org/2000/svg" p-id="25779" xmlns:xlink="http://www.w3.org/1999/xlink" width="18" height="18"><defs><style type="text/css"></style></defs><path d="M509.235 0.358C305.715 0.358 134.144 141.414 78.95 334.08 29.542 363.776 0.717 421.12 0.717 488.09c0 97.28 59.238 176.076 156.467 176.076a39.066 39.066 0 0 0 39.117-39.116V351.18c0-17.97-12.8-32.102-29.338-36.658C224.051 174.336 355.891 76.134 509.235 76.134s285.184 98.202 342.323 238.388c-16.588 4.556-29.337 18.688-29.337 36.659V625.05c0 21.606 17.459 39.116 39.117 39.116 9.062 0 17.254-1.126 25.65-2.457-12.646 73.011-43.314 127.385-74.546 165.017a287.232 287.232 0 0 1-55.04 51.354c-7.732 5.427-13.824 8.806-18.33 11.008l-4.915 2.458h-73.319c-14.08-40.858-58.88-70.912-112.486-70.912-64.82 0-117.35 43.776-117.35 97.792s52.53 97.792 117.35 97.792c53.555 0 98.406-30.055 112.486-70.912h77.005c13.21 0 16.589-3.482 24.474-7.322 7.833-3.84 17.1-9.062 26.88-15.872a339.456 339.456 0 0 0 66.048-61.133c41.216-49.664 79.616-123.443 89.19-222.515 46.131-30.618 73.37-85.709 73.37-150.374 0-67.021-28.877-124.263-78.234-154.01C884.326 141.414 712.704 0.358 509.235 0.358z" p-id="25780" fill="#ffffff"></path></svg>