<?xml version="1.0" standalone="no"?><!DOCTYPE svg PUBLIC "-//W3C//DTD SVG 1.1//EN" "http://www.w3.org/Graphics/SVG/1.1/DTD/svg11.dtd"><svg t="1550569050313" class="icon" style="" viewBox="0 0 1024 1024" version="1.1" xmlns="http://www.w3.org/2000/svg" p-id="45769" xmlns:xlink="http://www.w3.org/1999/xlink" width="18" height="18"><defs><style type="text/css"></style></defs><path d="M901.813476 1024H29.13792c-7.736889 0-15.132444-4.892444-20.593778-13.653333a63.146667 63.146667 0 0 1-8.533333-32.881778c0-12.344889 3.072-24.177778 8.533333-32.938667 5.461333-8.704 12.856889-13.653333 20.593778-13.653333h872.675556c7.736889 0 15.132444 4.949333 20.593777 13.653333 5.461333 8.760889 8.533333 20.593778 8.533334 32.938667 0 12.344889-3.072 24.177778-8.533334 32.938667-5.461333 8.704-12.856889 13.596444-20.593777 13.596444m-712.248889-236.145778L323.139698 504.092444l483.555555-483.669333a69.973333 69.973333 0 0 1 98.816 0l98.133334 98.076445c27.249778 27.306667 27.249778 71.509333 0 98.929777l-483.669334 483.612445-283.761777 133.347555a36.864 36.864 0 0 1-15.132445 3.413334 35.100444 35.100444 0 0 1-31.402667-49.948445" p-id="45770" fill="#ffffff"></path></svg>