<?xml version="1.0" standalone="no"?><!DOCTYPE svg PUBLIC "-//W3C//DTD SVG 1.1//EN" "http://www.w3.org/Graphics/SVG/1.1/DTD/svg11.dtd"><svg t="1550565505838" class="icon" style="" viewBox="0 0 1129 1024" version="1.1" xmlns="http://www.w3.org/2000/svg" p-id="2200" xmlns:xlink="http://www.w3.org/1999/xlink" width="15.435546875" height="14"><defs><style type="text/css"></style></defs><path d="M564.417853 921.016151c-137.423254 0-259.285761-68.158642-333.437219-172.325623H110.51988c85.609826 163.503579 256.945219 275.309472 453.962274 275.309472s368.301007-111.805893 453.962274-275.206591h-120.576495c-74.151458 104.08982-196.026825 172.325622-333.45008 172.325622z m0-817.980861c152.405295 0 285.610429 83.745108 355.903851 207.716675h114.72514C956.921609 128.176827 775.4653 0 564.417853 0 353.653329 0 172.158441 128.176827 93.801723 310.636224h114.72514C278.936026 186.780398 412.15402 103.03529 564.417853 103.03529z m493.828649 292.271971l-46.000653 174.498983-49.357144-174.498983h-61.046995L851.082812 569.459021l-46.900861-174.15176h-119.599126l-46.013513 174.498983-49.357145-174.498983H528.165172l-50.758898 174.15176-46.900861-174.15176h-102.688067l-45.949212 174.498983-49.357145-174.498983h-61.059855L120.692236 569.459021 73.919976 395.307261H0L84.876799 677.985583h64.686409l51.106121-166.885791 47.389546 166.885791h66.319645l63.387536-212.616382L441.616557 677.985583h64.686409l51.106121-166.885791 47.363826 166.885791h66.319645l71.913797-240.921508L815.331676 677.985583h64.673548L931.072765 511.099792l47.376686 166.885791h66.306784l84.208073-282.678322z" p-id="2201"></path></svg>