<?xml version="1.0" standalone="no"?><!DOCTYPE svg PUBLIC "-//W3C//DTD SVG 1.1//EN" "http://www.w3.org/Graphics/SVG/1.1/DTD/svg11.dtd"><svg t="1535957796967" class="icon" style="" viewBox="0 0 1024 1024" version="1.1" xmlns="http://www.w3.org/2000/svg" p-id="13056" xmlns:xlink="http://www.w3.org/1999/xlink" width="200" height="200"><defs><style type="text/css"></style></defs><path d="M721.816 402.184c-0.52 0-1.024 0.032-1.544 0.032C706.728 279.472 602.712 184 476.36 184S246 279.48 232.448 402.216c-0.52 0-1.024-0.032-1.544-0.032C125.472 402.184 40 487.656 40 593.088S125.472 784 230.912 784l490.912 0c105.44 0 190.912-85.472 190.912-190.912S827.256 402.184 721.816 402.184zM476.36 674.912 312.728 511.272l109.088 0L421.816 347.64l109.088 0 0 163.64L640 511.28 476.36 674.912z" p-id="13057"></path></svg>