<?xml version="1.0" standalone="no"?><!DOCTYPE svg PUBLIC "-//W3C//DTD SVG 1.1//EN" "http://www.w3.org/Graphics/SVG/1.1/DTD/svg11.dtd"><svg t="1563353398373" class="icon" viewBox="0 0 1024 1024" version="1.1" xmlns="http://www.w3.org/2000/svg" p-id="957" xmlns:xlink="http://www.w3.org/1999/xlink" width="200" height="200"><defs><style type="text/css"></style></defs><path d="M678.56 194.18l0 125.41999969c83.7 54.54 139.12000031 148.78000031 139.12000031 256.14 0 168.78-136.86 305.62000031-305.68000031 305.62000031-168.78 0-305.64-136.84000031-305.64-305.62000031 0-95.41999969 43.72000031-180.58000031 112.24000031-236.65999969L318.60000031 207.09999969C186.09999969 276.78000031 95.72 415.64 95.72 575.70000031 95.72 805.59999969 282.12000031 992 512.04000031 992c229.87999969 0 416.23999969-186.40000031 416.23999969-416.29999969C928.26000031 405.02 825.56 258.44 678.56 194.18z" p-id="958"></path><path d="M573.26 463.23999969c0 26.89999969-27.42 48.73999969-61.26 48.73999969l0 0c-33.79999969 0-61.24000031-21.82000031-61.24000031-48.73999969L450.75999969 80.73999969C450.75999969 53.82000031 478.20000031 32 512 32l0 0c33.84 0 61.26 21.82000031 61.26 48.73999969L573.26 463.23999969z" p-id="959"></path></svg>