<?xml version="1.0" standalone="no"?><!DOCTYPE svg PUBLIC "-//W3C//DTD SVG 1.1//EN" "http://www.w3.org/Graphics/SVG/1.1/DTD/svg11.dtd"><svg t="1550645171385" class="icon" style="" viewBox="0 0 1365 1024" version="1.1" xmlns="http://www.w3.org/2000/svg" p-id="8668" xmlns:xlink="http://www.w3.org/1999/xlink" width="18.662109375" height="14"><defs><style type="text/css"></style></defs><path d="M748.373333 323.413333L597.333333 475.306667 446.293333 323.413333l-50.346666 43.52 144.213333 144.213334H417.28v71.68h144.213333v71.68H417.28v72.533333h144.213333v144.213333h71.68V727.04h144.213334v-72.533333H633.173333v-71.68h144.213334v-71.68H654.506667L798.72 366.933333l-50.346667-43.52z" p-id="8669" fill="#ffffff"></path><path d="M1109.333333 170.666667H85.333333a85.333333 85.333333 0 0 0-85.333333 85.333333v682.666667a85.333333 85.333333 0 0 0 85.333333 85.333333h1024a85.333333 85.333333 0 0 0 85.333334-85.333333V256a85.333333 85.333333 0 0 0-85.333334-85.333333z m0 725.333333a42.666667 42.666667 0 0 1-42.666666 42.666667h-938.666667a42.666667 42.666667 0 0 1-42.666667-42.666667v-597.333333a42.666667 42.666667 0 0 1 42.666667-42.666667h938.666667a42.666667 42.666667 0 0 1 42.666666 42.666667z" p-id="8670" fill="#ffffff"></path><path d="M1280 0H256a42.666667 42.666667 0 0 0 0 85.333333h981.333333a42.666667 42.666667 0 0 1 42.666667 42.666667V768a42.666667 42.666667 0 0 0 85.333333 0V85.333333a85.333333 85.333333 0 0 0-85.333333-85.333333z" p-id="8671" fill="#ffffff"></path></svg>