<?xml version="1.0" standalone="no"?><!DOCTYPE svg PUBLIC "-//W3C//DTD SVG 1.1//EN" "http://www.w3.org/Graphics/SVG/1.1/DTD/svg11.dtd"><svg t="1550568673516" class="icon" style="" viewBox="0 0 1024 1024" version="1.1" xmlns="http://www.w3.org/2000/svg" p-id="37108" xmlns:xlink="http://www.w3.org/1999/xlink" width="18" height="18"><defs><style type="text/css"></style></defs><path d="M687.641075 400.367143 687.641075 115.759507c0 0-139.301154-74.620207-301.894516-17.070826L687.641075 400.367143zM714.042575 567.763249 714.042575 127.520733c0 0 164.685143 74.620207 211.100074 255.832945L714.042575 567.763249zM625.453039 695.708302l303.986297-285.749462c0 0 53.820909 87.409137-26.4017 285.749462L625.453039 695.708302zM470.209094 731.962322l410.610606 0c0 0-49.580784 134.339318-226.986303 189.71937L470.209094 731.962322zM336.165776 641.298791l0 267.53681c0 0 106.624109 68.282904 289.287263 22.437387L336.165776 641.298791zM98.60744 655.172385l207.990582-186.579299 0 424.256754C306.598222 892.84984 180.978393 849.230814 98.60744 655.172385zM93.349805 625.31283c0 0-47.545564-153.46555 18.995521-286.720004l286.064848 0L93.349805 625.31283zM130.323337 308.67611c0 0 60.152816-136.394724 223.763688-200.395732l195.270207 200.395732L130.323337 308.67611z" p-id="37109" fill="#ffffff"></path></svg>