<?xml version="1.0" standalone="no"?><!DOCTYPE svg PUBLIC "-//W3C//DTD SVG 1.1//EN" "http://www.w3.org/Graphics/SVG/1.1/DTD/svg11.dtd"><svg t="1563353393904" class="icon" viewBox="0 0 1249 1024" version="1.1" xmlns="http://www.w3.org/2000/svg" p-id="839" xmlns:xlink="http://www.w3.org/1999/xlink" width="243.9453125" height="200"><defs><style type="text/css"></style></defs><path d="M207.05 992c-0.06-134.07-0.21-268.08 0-402.12 0-3.9 2.19-8.94 5.1-11.49 132.45-114.81 265.14-229.41 397.8-343.98 0.84-0.72 1.89-1.23 3.96-2.52 3.42 2.88 7.14 5.88 10.74 9.06 129.42 115.44 258.75 230.94 388.32 346.23 5.61 5.01 7.83 9.99 7.83 17.46-0.15 129.09-0.03 258.21 0 387.33-79.56 0-159.12 0-238.65 0 0-62.07 0.42-124.17-0.12-186.24-0.81-95.25-78.9-169.71-174.03-166.74-86.91 2.76-160.02 72.81-162 157.65-1.53 65.04-0.27 130.2-0.24 195.3-79.59 0.03-159.12 0.03-238.68 0.03z" p-id="840"></path><path d="M32.03 555.59c5.46-17.7 17.76-29.91 31.35-41.79 180.18-157.59 360.12-315.42 540.12-473.16 3.12-2.7 6.33-5.28 10.35-8.61 78.12 68.4 155.94 136.59 236.31 206.91 0-8.76 0.48-14.31-0.12-19.74-1.17-10.83 3.99-17.91 13.53-20.88 12.54-3.93 25.41-7.8 38.4-9.27 31.74-3.63 63.51-3.63 94.62 5.28 20.82 5.97 24.09 10.65 24.06 31.86-0.03 50.76 0.06 101.49-0.21 152.25-0.03 7.02 1.86 11.76 7.35 16.5 49.83 43.14 99.39 86.55 148.95 129.96 22.65 19.83 24.99 52.98 5.43 75.3-19.89 22.77-53.04 24.93-76.23 4.59-68.67-60.15-137.22-120.42-205.8-180.57-93.12-81.63-186.27-163.26-279.42-244.86-1.98-1.74-4.08-3.33-6.81-5.55-2.61 1.98-5.31 3.84-7.74 6-157.56 138-315.09 276.03-472.56 414.06-3.99 3.51-7.71 7.32-11.67 10.83-28.23 25.17-71.28 15.27-85.71-19.68-1.26-3.03-2.82-5.97-4.23-8.94 0-6.81 0-13.65 0-20.46z" p-id="841"></path></svg>