<?xml version="1.0" standalone="no"?><!DOCTYPE svg PUBLIC "-//W3C//DTD SVG 1.1//EN" "http://www.w3.org/Graphics/SVG/1.1/DTD/svg11.dtd"><svg t="1550629372861" class="icon" style="" viewBox="0 0 1024 1024" version="1.1" xmlns="http://www.w3.org/2000/svg" p-id="46532" xmlns:xlink="http://www.w3.org/1999/xlink" width="18" height="18"><defs><style type="text/css"></style></defs><path d="M870.071 216.042c18.748 0 34 15.252 34 34v523.916c0 18.748-15.252 34-34 34H153.929c-18.748 0-34-15.252-34-34V250.042c0-18.748 15.252-34 34-34h716.142m0-56H153.929c-49.706 0-90 40.294-90 90v523.916c0 49.706 40.294 90 90 90h716.143c49.706 0 90-40.294 90-90V250.042c-0.001-49.705-40.295-90-90.001-90z" fill="" p-id="46533"></path><path d="M478.953 522.602c20.776-21.575 33.556-50.905 33.556-83.223 0-66.274-53.726-120-120-120s-120 53.726-120 120c0 32.318 12.78 61.648 33.556 83.223-67.175 32.247-113.556 100.907-113.556 180.401h56c0-38.464 14.979-74.625 42.177-101.823 25.543-25.543 58.993-40.307 94.831-42.009 2.314 0.133 4.644 0.208 6.992 0.208s4.678-0.075 6.992-0.208c35.838 1.702 69.288 16.465 94.831 42.009 27.198 27.198 42.177 63.36 42.177 101.823h56c0-79.494-46.381-148.153-113.556-180.401z m-150.444-83.223c0-35.29 28.71-64 64-64s64 28.71 64 64c0 33.3-25.568 60.729-58.102 63.717-1.96-0.057-3.925-0.093-5.898-0.093s-3.938 0.036-5.898 0.093c-32.534-2.988-58.102-30.417-58.102-63.717zM832.47 348c0 15.4-12.6 28-28 28H620.509c-15.4 0-28-12.6-28-28s12.6-28 28-28H804.47c15.4 0 28 12.6 28 28zM832.47 479.982c0 15.4-12.6 28-28 28H679.727c-15.4 0-28-12.6-28-28s12.6-28 28-28H804.47c15.4 0 28 12.6 28 28z" fill="" p-id="46534"></path><path d="M832.47 611.965c0 15.4-12.6 28-28 28h-70.135c-15.4 0-28-12.6-28-28s12.6-28 28-28h70.135c15.4 0 28 12.6 28 28z" fill="" p-id="46535"></path></svg>