<?xml version="1.0" standalone="no"?><!DOCTYPE svg PUBLIC "-//W3C//DTD SVG 1.1//EN" "http://www.w3.org/Graphics/SVG/1.1/DTD/svg11.dtd"><svg t="1522986708913" class="icon" style="" viewBox="0 0 1024 1024" version="1.1" xmlns="http://www.w3.org/2000/svg" p-id="2231" xmlns:xlink="http://www.w3.org/1999/xlink" width="200" height="200"><defs><style type="text/css"></style></defs><path d="M512.217041 757.039423a378.519712 378.519712 0 1 1 378.519712-378.519711 378.953794 378.953794 0 0 1-378.519712 378.519711z m0-691.927087a313.841458 313.841458 0 1 0 313.841458 313.841458 313.841458 313.841458 0 0 0-313.841458-314.275541z" fill="#515151" p-id="2232"></path><path d="M361.156422 1024a24.308605 24.308605 0 0 1-21.270029-12.588385l-63.810089-117.636286L144.115303 911.5727a24.308605 24.308605 0 0 1-23.874523-36.89699l151.494701-243.086053a24.308605 24.308605 0 0 1 18.231454-9.983892 24.742688 24.742688 0 0 1 19.533701 5.208987 320.352692 320.352692 0 0 0 165.819415 70.755405 24.308605 24.308605 0 0 1 19.533701 32.99025l-111.125053 278.246715a24.308605 24.308605 0 0 1-21.27003 15.192878zM289.966935 842.987707a24.308605 24.308605 0 0 1 21.27003 12.588385l46.446799 86.816447 79.43705-201.414158a367.667656 367.667656 0 0 1-138.472234-59.903349l-109.822806 176.237389 97.234421-13.890632zM663.27766 1024a24.308605 24.308605 0 0 1-21.27003-15.192878l-111.125053-278.246715a24.308605 24.308605 0 0 1 19.533701-32.99025 320.352692 320.352692 0 0 0 165.819415-70.755405 24.742688 24.742688 0 0 1 19.533701-5.208987 24.308605 24.308605 0 0 1 16.495125 11.286138l151.494701 243.086054a24.308605 24.308605 0 0 1-23.874523 36.89699l-130.224672-19.099618-65.112335 117.636286a24.308605 24.308605 0 0 1-21.27003 12.588385z m-75.964392-283.455702l79.43705 201.414159 46.880882-86.816448a24.308605 24.308605 0 0 1 24.742687-12.588385l97.234422 13.890632L724.049173 681.075032a368.969903 368.969903 0 0 1-136.735905 59.903349zM512.217041 588.181433a210.095803 210.095803 0 0 1-210.095803-209.661721 24.308605 24.308605 0 1 1 48.61721 0 161.478593 161.478593 0 1 0 322.957186 0 24.308605 24.308605 0 0 1 48.61721 0 210.095803 210.095803 0 0 1-210.095803 209.661721z" fill="#515151" p-id="2233"></path></svg>