<?xml version="1.0" standalone="no"?><!DOCTYPE svg PUBLIC "-//W3C//DTD SVG 1.1//EN" "http://www.w3.org/Graphics/SVG/1.1/DTD/svg11.dtd"><svg t="1550629452719" class="icon" style="" viewBox="0 0 1024 1024" version="1.1" xmlns="http://www.w3.org/2000/svg" p-id="48666" xmlns:xlink="http://www.w3.org/1999/xlink" width="18" height="18"><defs><style type="text/css"></style></defs><path d="M511.3 819.9C353 819.9 218 719.6 166.6 579.1c31.9 161.2 174.2 282.8 344.8 282.8 170.6 0 312.8-121.6 344.8-282.8-51.6 140.5-186.5 240.8-344.9 240.8z" p-id="48667"></path><path d="M511.3 918.2C353 918.2 218 817.9 166.6 677.4c31.9 161.2 174.2 282.8 344.8 282.8 170.6 0 312.8-121.6 344.8-282.8-51.6 140.5-186.5 240.8-344.9 240.8z" p-id="48668"></path><path d="M511.3 64.2c-97 0-184.9 39.4-248.5 103-63.6 63.6-102.9 151.4-102.9 248.5s39.4 184.9 102.9 248.6c63.6 63.6 151.5 102.9 248.5 102.9 97.1 0 185-39.3 248.5-102.9 63.6-63.6 102.9-151.5 102.9-248.6s-39.4-184.9-102.9-248.5c-63.5-63.6-151.4-103-248.5-103z m99.6 270.4H525v-14.3c0-15.2-1-25.1-3-29.7-2-4.8-6.2-7-12.7-7-5.3 0-9.2 2-11.8 6-2.6 4-3.9 10.1-3.9 18.2 0 13.5 2.7 22.9 8.1 28.3 5.2 5.4 20.7 15.9 46.4 31.5 21.8 13.2 36.7 23.3 44.6 30.3 7.9 7 14.6 16.9 20.1 29.8 5.4 12.9 8.2 28.9 8.2 47.9 0 30.6-7.4 54.7-22.1 72.2-14.8 17.4-37 28.1-66.4 32.3v32.2h-39.7v-33.2c-22.9-2.2-43-11.1-60.1-26.5-17.2-15.3-25.7-42.2-25.7-80.5v-16.8h85.9v21c0 23.1 0.9 37.4 2.7 43 1.8 5.6 6 8.3 12.8 8.3 5.8 0 10.2-2 13-5.7 2.9-4 4.2-9.8 4.2-17.5 0-19.2-1.3-33-4-41.3-2.7-8.3-11.9-17.4-27.6-27.1-26.3-16.5-44-28.6-53.5-36.3-9.4-7.8-17.6-18.6-24.4-32.8-6.9-13.9-10.3-29.8-10.3-47.6 0-25.7 7.2-45.8 21.8-60.5 14.5-14.6 36.3-23.6 65.4-27v-27.5h39.7v27.5c26.5 3.4 46.4 12.2 59.6 26.6 13.1 14.4 19.7 34.3 19.7 59.7-0.1 3.8-0.4 9.2-1.1 16.5z m118.3-136.8c55.8 55.7 90.3 132.8 90.3 217.8 0 85.2-34.5 162.2-90.3 217.9-55.8 55.7-132.8 90.3-217.9 90.3s-162.1-34.5-217.9-90.3c-55.7-55.7-90.2-132.8-90.2-217.9s34.5-162.1 90.2-217.8c55.8-55.8 132.8-90.3 217.9-90.3s162.1 34.5 217.9 90.3z" p-id="48669"></path></svg>