<?xml version="1.0" standalone="no"?><!DOCTYPE svg PUBLIC "-//W3C//DTD SVG 1.1//EN" "http://www.w3.org/Graphics/SVG/1.1/DTD/svg11.dtd"><svg t="1550570256924" class="icon" style="" viewBox="0 0 1024 1024" version="1.1" xmlns="http://www.w3.org/2000/svg" p-id="67766" xmlns:xlink="http://www.w3.org/1999/xlink" width="18" height="18"><defs><style type="text/css"></style></defs><path d="M883.2 0H140.8C97.28 0 64 33.28 64 76.8v870.4c0 43.52 33.28 76.8 76.8 76.8h742.4c43.52 0 76.8-33.28 76.8-76.8V76.8c0-43.52-33.28-76.8-76.8-76.8z m25.6 947.2c0 15.36-10.24 25.6-25.6 25.6H140.8c-15.36 0-25.6-10.24-25.6-25.6V76.8c0-15.36 10.24-25.6 25.6-25.6h742.4c15.36 0 25.6 10.24 25.6 25.6v870.4z" p-id="67767"></path><path d="M243.2 256h51.2v51.2H243.2zM345.6 256h435.2v51.2H345.6zM243.2 486.4h51.2v51.2H243.2zM345.6 486.4h435.2v51.2H345.6zM243.2 716.8h51.2v51.2H243.2zM345.6 716.8h435.2v51.2H345.6z" p-id="67768"></path></svg>