<?xml version="1.0" standalone="no"?><!DOCTYPE svg PUBLIC "-//W3C//DTD SVG 1.1//EN" "http://www.w3.org/Graphics/SVG/1.1/DTD/svg11.dtd"><svg t="1550570368101" class="icon" style="" viewBox="0 0 1024 1024" version="1.1" xmlns="http://www.w3.org/2000/svg" p-id="69535" xmlns:xlink="http://www.w3.org/1999/xlink" width="18" height="18"><defs><style type="text/css"></style></defs><path d="M963.038497 422.196116c-1.496062-7.971702-5.981817-15.445932-12.457457-19.930471L528.606293 97.864377c-10.462707-7.968053-24.910048-7.968053-35.872658 0L70.760104 402.265645c-13.451182 9.962803-16.444524 28.397211-6.475639 42.347081 9.962803 13.451182 28.392346 16.439658 42.342215 6.475639l19.931687-14.448557v398.06694c0 54.800888 44.338182 99.13907 99.139071 99.13907h570.938778c54.805754 0 99.143936-44.338182 99.143936-99.13907V437.139712l19.926822 14.447341c5.48313 3.48838 11.460081 5.48313 17.437033 5.48313 9.962803 0 18.933096-4.484538 24.910048-12.457457 4.484538-6.475639 6.475639-14.448557 4.984442-22.41661zM834.997446 393.300217v442.400257c0 20.92298-17.437033 38.36123-38.36123 38.36123H225.697438c-20.925413 0-38.36123-17.43825-38.36123-38.36123V393.300217l323.334364-233.65576L834.997446 393.300217z m0 0" fill="#8a8a8a" p-id="69536"></path><path d="M408.979681 591.535787l62.862598 120.062051s102.255259-243.904396 263.331314-325.115043c-4.049099 58.007084-19.694506 108.462094 7.825744 170.247039-70.688342 15.379035-216.11534 189.672741-263.331314 274.66125C412.756327 750.180437 334.242241 688.126686 279.200523 668.971006l129.779158-77.435219z m0 0" fill="#8a8a8a" p-id="69537"></path></svg>