<?xml version="1.0" standalone="no"?><!DOCTYPE svg PUBLIC "-//W3C//DTD SVG 1.1//EN" "http://www.w3.org/Graphics/SVG/1.1/DTD/svg11.dtd"><svg t="1550568785296" class="icon" style="" viewBox="0 0 1030 1024" version="1.1" xmlns="http://www.w3.org/2000/svg" p-id="40314" xmlns:xlink="http://www.w3.org/1999/xlink" width="18.10546875" height="18"><defs><style type="text/css"></style></defs><path d="M981.653796 763.281441L572.772281 990.261284c-32.178411 17.920556-84.590587 17.920556-116.767564 0L46.92673 763.281441c-32.178411-17.920556-32.178411-47.017079 0-64.746899l54.338177-30.250976 314.847356 174.769875c35.264602 19.651518 72.836676 23.69569 98.276236 23.69569 25.241653 0 62.813728-4.044172 98.269065-23.69569l314.656621-174.769875 54.339611 30.060241c32.176977 18.111291 32.176977 47.017079 0 64.937634zM46.92673 325.683441l408.881515 226.987014c32.176977 17.920556 84.589153 17.920556 116.767564 0L981.457324 325.683441c32.184148-17.920556 32.184148-47.011343 0-64.741162L572.772281 33.955265c-32.178411-17.920556-84.590587-17.920556-116.767564 0L46.92673 260.942279c-32.374884 17.920556-32.374884 46.820607 0 64.741162z m934.727066 153.959602l-54.339611-30.060241-314.853093 174.769875c-35.258865 19.651518-72.83094 23.69569-98.269065 23.69569-25.243088 0-62.815162-4.044172-98.270499-23.69569L101.264907 449.582802l-54.338177 30.060241c-32.178411 17.920556-32.178411 47.017079 0 64.741162l408.881515 226.987013c32.176977 17.920556 84.589153 17.920556 116.767564 0L981.457324 544.384205c32.373449-17.724084 32.373449-46.820607 0.196472-64.741162z m0 0" p-id="40315" fill="#ffffff"></path></svg>