<?xml version="1.0" standalone="no"?><!DOCTYPE svg PUBLIC "-//W3C//DTD SVG 1.1//EN" "http://www.w3.org/Graphics/SVG/1.1/DTD/svg11.dtd"><svg t="1535957904384" class="icon" style="" viewBox="0 0 1024 1024" version="1.1" xmlns="http://www.w3.org/2000/svg" p-id="15463" xmlns:xlink="http://www.w3.org/1999/xlink" width="200" height="200"><defs><style type="text/css"></style></defs><path d="M145.245846 292.12322l42.719668 0L187.965514 83.824127 153.157351 83.824127c0 1.920746-0.542375 4.859681-1.60461 8.803503-1.854307 6.599302-4.566179 11.866259-8.160178 15.810081-5.266149 5.785773-12.069368 9.639544-20.433192 11.550057-5.243636 1.220804-14.443535 2.13564-27.575139 2.75781l0 29.484521 49.861614 0L145.245846 292.12322zM198.723973 427.13517c-14.668672-12.860912-34.37938-19.279089-59.174082-19.279089-31.35027 0-53.184426 10.939143-65.45744 32.81743-6.46449 11.504008-10.081002 26.580379-10.849537 45.248553l44.730547 0c0.542375-12.295024 2.259553-21.290909 5.176095-26.941606 5.063527-9.764388 14.579641-14.668071 28.592347-14.668071 10.216084 0 22.037802 1.219781 27.530111 7.367805 5.492309 6.170536 8.227719 13.855566 8.227719 23.166629 0 11.391445-8.74758 23.732517-18.331235 33.31578-6.23833 6.148024-19.958359 16.363689-41.182599 30.55797-24.43346 16.363689-39.939231 31.823799-46.493775 46.469358-6.780705 13.018501-10.397217 19.663852-10.827023 30.965246L217.055208 616.155175l0-29.993105-98.254724 0c2.915519-3.6399 6.487004-13.629415 10.735945-17.064654 4.248941-3.435239 12.160446-8.974395 23.709953-16.635889l18.443803-12.249999c15.528284-10.30674 26.694036-19.641339 33.474741-28.02631 10.35219-12.589736 17.51665-22.375613 17.51665-38.626739C222.683623 452.381158 213.371155 439.996083 198.723973 427.13517zM205.053381 837.065494c-7.866477-6.238075-13.901161-9.357112-18.105075-9.357112 5.605901-1.854231 10.984619-5.334495 16.160714-10.441816 8.205205-8.182356 12.296551-18.240433 12.296551-30.151717 0-16.815991-6.870759-30.241768-20.591811-40.253796-13.720028-9.990538-31.80259-14.985296-54.17912-14.985296-12.069368 0-22.240425 1.243317-30.535685 3.751441-8.29526 2.53166-15.460744 6.148024-21.472914 10.894118-8.091614 6.689353-14.013729 14.012132-17.78886 21.900799-3.547948 9.018398-5.537337 18.556635-5.967143 28.591175l43.013368 0c-0.22616-9.945513 2.215549-17.900695 7.323079-23.867594 5.108554-5.921873 13.110113-8.904811 23.958626-8.904811 9.44755 0 16.794166 2.418073 22.015288 7.231705 5.222145 4.837168 7.82145 11.120268 7.82145 18.850323 0 11.888771-5.108554 19.799952-15.302125 23.731494-5.922116 2.305509-16.341846 3.570315-31.282729 3.751441l0 28.478612c15.279611 0 26.445362 1.243317 33.542282 3.752464 12.47666 4.474918 18.692477 13.357216 18.692477 26.646893 0 10.058077-3.367839 17.743106-10.081002 23.099091-6.713164 5.355985-14.602154 8.023744-23.619898 8.023744-14.737236 0-24.908293-4.882194-30.491681-14.646582-3.006597-5.310959-4.520129-12.023848-4.520129-20.11513L60.666124 873.04494c0.746021 16.092513 4.520129 29.111015 11.300833 39.078017 12.92898 18.691711 35.98399 28.048823 69.141493 28.048823 26.920196 0 47.239796-6.509251 60.982338-19.482727 13.720028-12.973476 20.590788-28.003797 20.590788-45.113477C222.683623 859.307054 216.806534 846.468654 205.053381 837.065494zM384.700098 153.256476l555.486667 0c12.792875 0 23.145065-10.363022 23.145065-23.144116s-10.35219-23.144116-23.145065-23.144116L384.700098 106.968244c-12.792875 0-23.145065 10.363022-23.145065 23.144116S371.907223 153.256476 384.700098 153.256476zM940.187788 222.689848 384.700098 222.689848c-12.792875 0-23.145065 10.363022-23.145065 23.144116s10.35219 23.144116 23.145065 23.144116l555.486667 0c12.792875 0 23.145065-10.363022 23.145065-23.144116S952.980663 222.689848 940.187788 222.689848zM940.187788 431.000198 384.700098 431.000198c-12.792875 0-23.145065 10.351766-23.145065 23.144116 0 12.769838 10.35219 23.144116 23.145065 23.144116l555.486667 0c12.792875 0 23.145065-10.374278 23.145065-23.144116C963.332853 441.351963 952.980663 431.000198 940.187788 431.000198zM940.187788 546.721803 384.700098 546.721803c-12.792875 0-23.145065 10.351766-23.145065 23.144116 0 12.769838 10.35219 23.14514 23.145065 23.14514l555.486667 0c12.792875 0 23.145065-10.375302 23.145065-23.14514C963.332853 557.073568 952.980663 546.721803 940.187788 546.721803zM940.187788 755.020896 384.700098 755.020896c-12.792875 0-23.145065 10.350742-23.145065 23.144116 0 12.769838 10.35219 23.144116 23.145065 23.144116l555.486667 0c12.792875 0 23.145065-10.374278 23.145065-23.144116C963.332853 765.372661 952.980663 755.020896 940.187788 755.020896zM940.187788 870.742501 384.700098 870.742501c-12.792875 0-23.145065 10.351766-23.145065 23.144116 0 12.769838 10.35219 23.144116 23.145065 23.144116l555.486667 0c12.792875 0 23.145065-10.374278 23.145065-23.144116C963.332853 881.095289 952.980663 870.742501 940.187788 870.742501z" p-id="15464"></path></svg>