<?xml version="1.0" standalone="no"?><!DOCTYPE svg PUBLIC "-//W3C//DTD SVG 1.1//EN" "http://www.w3.org/Graphics/SVG/1.1/DTD/svg11.dtd"><svg t="1550569731478" class="icon" style="" viewBox="0 0 1247 1024" version="1.1" xmlns="http://www.w3.org/2000/svg" p-id="58383" xmlns:xlink="http://www.w3.org/1999/xlink" width="21.919921875" height="18"><defs><style type="text/css"></style></defs><path d="M429.982364 257.989409 289.164956 257.989409C265.169519 257.989409 229.437841 273.277284 212.882699 290.572333L89.027495 419.963014C72.402365 437.331167 57.331 474.685841 57.331 498.698062L57.331 659.306318 28.6655 630.640818 192.175059 630.640818C208.006545 630.640818 220.840515 643.474788 220.840515 659.306318 220.840515 675.137848 208.006545 687.971818 192.175059 687.971818L28.6655 687.971818C12.83397 687.971818 0 675.137848 0 659.306318L0 498.698062C0 459.878934 20.797128 408.332911 47.612171 380.319432L171.467375 250.928751C198.827809 222.345528 249.516121 200.658454 289.164956 200.658454L429.982364 200.658454 429.982364 115.151026C429.982364 51.554883 481.411695 0 544.980235 0L1117.61831 0C1181.129862 0 1232.616136 51.709685 1232.616136 115.151026L1232.616136 572.820792C1232.616136 636.416935 1181.186805 687.971818 1117.61831 687.971818L544.980235 687.971818C481.468683 687.971818 429.982364 636.262088 429.982364 572.820792L429.982364 257.989409ZM501.646113 124.685802 501.646113 563.286016C501.646113 593.819203 526.467651 618.696882 556.910191 618.696882L1105.688353 618.696882C1136.224968 618.696882 1160.952431 593.928014 1160.952431 563.286016L1160.952431 124.685802C1160.952431 94.152615 1136.130894 69.274936 1105.688353 69.274936L556.910191 69.274936C526.373532 69.274936 501.646113 94.043804 501.646113 124.685802ZM315.320409 1003.292227C394.477969 1003.292227 458.647864 939.122332 458.647864 859.964772 458.647864 780.807168 394.477969 716.637318 315.320409 716.637318 236.162849 716.637318 171.992954 780.807168 171.992954 859.964772 171.992954 939.122332 236.162849 1003.292227 315.320409 1003.292227ZM315.320409 945.961227C267.825864 945.961227 229.323954 907.459317 229.323954 859.964772 229.323954 812.470227 267.825864 773.968273 315.320409 773.968273 362.814954 773.968273 401.316864 812.470227 401.316864 859.964772 401.316864 907.459317 362.814954 945.961227 315.320409 945.961227ZM945.961227 1003.292227C1025.118787 1003.292227 1089.288682 939.122332 1089.288682 859.964772 1089.288682 780.807168 1025.118787 716.637318 945.961227 716.637318 866.803667 716.637318 802.633773 780.807168 802.633773 859.964772 802.633773 939.122332 866.803667 1003.292227 945.961227 1003.292227ZM945.961227 945.961227C898.466682 945.961227 859.964772 907.459317 859.964772 859.964772 859.964772 812.470227 898.466682 773.968273 945.961227 773.968273 993.455772 773.968273 1031.957727 812.470227 1031.957727 859.964772 1031.957727 907.459317 993.455772 945.961227 945.961227 945.961227ZM200.658454 487.313363 315.320409 487.313363C331.151939 487.313363 343.985909 474.479393 343.985909 458.647864L343.985909 343.985909C343.985909 328.154379 331.151939 315.320409 315.320409 315.320409 299.488879 315.320409 286.654909 328.154379 286.654909 343.985909L286.654909 458.647864 315.320409 429.982364 200.658454 429.982364C184.826925 429.982364 171.992954 442.816334 171.992954 458.647864 171.992954 474.479393 184.826925 487.313363 200.658454 487.313363Z" p-id="58384" fill="#ffffff"></path></svg>