<?xml version="1.0" standalone="no"?><!DOCTYPE svg PUBLIC "-//W3C//DTD SVG 1.1//EN" "http://www.w3.org/Graphics/SVG/1.1/DTD/svg11.dtd"><svg t="1550570871988" class="icon" style="" viewBox="0 0 1024 1024" version="1.1" xmlns="http://www.w3.org/2000/svg" p-id="79012" xmlns:xlink="http://www.w3.org/1999/xlink" width="18" height="18"><defs><style type="text/css"></style></defs><path d="M172.584 242.666a73.455 73.455 0 0 0 5.176 20.733c11.061 26.97 37.295 44.597 66.255 44.597h71.648v216.746c0 39.938 32.065 72.248 71.73 72.248 39.639 0 71.704-32.311 71.704-72.248V307.996h71.894c29.014 0 55.222-17.626 66.282-44.597 2.806-6.756 4.469-13.676 5.014-20.733 1.988-21.167-5.286-42.471-20.569-57.972L438.231 40.169c-14.003-14.112-32.366-21.167-50.7-21.167-18.362 0-36.724 7.056-50.726 21.167L193.316 184.694c-15.419 15.501-22.693 36.806-20.732 57.972z m19.315 630.458c-35.334 0-67.153-23.783-67.153-57.564V201.557c0-18.943 10.007-34.739 25.026-44.963L271.744 19.383h-79.818C85.925 19.383 0 101.521 0 202.837v611.442c0 101.316 85.925 183.427 191.926 183.427H517.97L393.387 873.124H191.899zM831.7 19.383H499.037l124.61 124.609h211.078c35.334 0 67.153 23.783 67.153 57.564V815.56c0 19.833-10.976 36.212-27.184 46.362L738.91 997.706h92.79c106.003 0 191.954-82.11 191.954-183.427V202.837c0-101.316-85.951-183.454-191.954-183.454z m12.587 754.576c-0.709-7.056-2.396-14.002-5.204-20.785-11.088-26.998-37.377-44.679-66.444-44.679h-71.786V491.341c0-40.02-32.174-72.385-71.949-72.385-39.72 0-71.894 32.366-71.894 72.385v217.154h-72.058c-29.095 0-55.385 17.681-66.473 44.679-2.806 6.783-4.496 13.729-5.04 20.785-1.989 21.223 5.312 42.555 20.623 58.109l143.87 144.769c14.058 14.14 32.447 21.224 50.837 21.224 18.415 0 36.832-7.084 50.861-21.224L823.5 832.068c15.447-15.554 22.749-36.886 20.787-58.109z" p-id="79013" fill="#ffffff"></path></svg>