<?xml version="1.0" standalone="no"?><!DOCTYPE svg PUBLIC "-//W3C//DTD SVG 1.1//EN" "http://www.w3.org/Graphics/SVG/1.1/DTD/svg11.dtd"><svg t="1550644997608" class="icon" style="" viewBox="0 0 1059 1024" version="1.1" xmlns="http://www.w3.org/2000/svg" p-id="5380" xmlns:xlink="http://www.w3.org/1999/xlink" width="14.478515625" height="14"><defs><style type="text/css"></style></defs><path d="M227.188292 250.369825A250.369825 250.369825 0 1 0 477.558117 0a250.369825 250.369825 0 0 0-250.369825 250.369825z" fill="#ffffff" p-id="5381"></path><path d="M588.171241 443.777203a474.245489 474.245489 0 0 0-124.522558 327.202893 496.103172 496.103172 0 0 0 43.053012 203.342689H0.000858c0-302.695794 212.615645-548.429141 475.570197-548.429141a415.958334 415.958334 0 0 1 112.600186 17.883559z" fill="#ffffff" p-id="5382"></path><path d="M529.884086 825.955481l58.287155-44.37772a198.70621 198.70621 0 0 1 0-26.494161 198.70621 198.70621 0 0 1 0-26.494162l-58.287155-44.37772a13.247081 13.247081 0 0 1-3.31177-17.221205l54.975385-92.729565a13.909435 13.909435 0 0 1 16.558851-5.961186l66.235403 27.156515a205.329751 205.329751 0 0 1 46.364783-26.494161l10.597664-71.534236a13.247081 13.247081 0 0 1 13.909435-11.260019h110.613124a13.247081 13.247081 0 0 1 13.909434 11.260019l10.597665 71.534236a218.576831 218.576831 0 0 1 47.027136 26.494161l66.235404-27.156515a13.909435 13.909435 0 0 1 16.558851 5.961186l54.975385 92.729565a13.247081 13.247081 0 0 1 0 17.221205l-58.287156 44.37772a182.809714 182.809714 0 0 1 0 52.988323l58.287156 44.37772a13.247081 13.247081 0 0 1 0 17.221205l-54.975385 92.729565a13.909435 13.909435 0 0 1-16.558851 5.961186l-66.235404-27.156515a204.667397 204.667397 0 0 1-47.027136 26.494161l-10.597665 71.534236a13.247081 13.247081 0 0 1-13.24708 11.260019h-110.613124a13.247081 13.247081 0 0 1-13.247081-11.260019l-10.597664-71.534236a213.940353 213.940353 0 0 1-46.364783-26.494161l-66.235403 27.156515a13.909435 13.909435 0 0 1-16.558851-5.961186l-54.975385-92.729565a13.247081 13.247081 0 0 1 0-17.221205z m264.941614 23.182391a94.054273 94.054273 0 1 0-96.703689-94.054272 95.378981 95.378981 0 0 0 96.703689 94.054272z" fill="#ffffff" p-id="5383"></path></svg>