<?xml version="1.0" standalone="no"?><!DOCTYPE svg PUBLIC "-//W3C//DTD SVG 1.1//EN" "http://www.w3.org/Graphics/SVG/1.1/DTD/svg11.dtd"><svg t="1530781829925" class="icon" style="" viewBox="0 0 1024 1024" version="1.1" xmlns="http://www.w3.org/2000/svg" p-id="5849" xmlns:xlink="http://www.w3.org/1999/xlink" width="200" height="200"><defs><style type="text/css"></style></defs><path d="M121.748 486.699c3.974 0 8.01-0.84 11.859-2.612 14.224-6.559 20.442-23.409 13.88-37.637-13.249-28.744-20.256-60.619-20.256-92.184 0-119.772 97.444-217.216 217.215-217.216 54.353 0 107.145 21.388 148.648 60.218 10.904 10.207 27.854 10.207 38.759 0 41.505-38.83 94.296-60.218 148.648-60.218 119.771 0 217.21 97.444 217.21 217.216 0 31.508-6.978 63.327-20.184 92.018-6.553 14.232-0.325 31.078 13.908 37.63 14.232 6.548 31.078 0.321 37.626-13.908 16.607-36.08 25.386-76.103 25.386-115.74 0-151.056-122.896-273.947-273.946-273.947-60.533 0-119.328 20.762-168.035 58.924-20.356-15.924-42.627-28.892-66.474-38.682-32.712-13.431-66.876-20.242-101.547-20.242C193.391 80.319 70.5 203.21 70.5 354.266c0 39.708 8.807 79.799 25.471 115.94C100.752 480.585 111.021 486.699 121.748 486.699L121.748 486.699zM121.748 486.699" p-id="5850"></path><path d="M926.083 524.603 668.289 524.603 616.511 384.26c-4.112-11.152-14.739-18.551-26.612-18.551l-0.144 0c-11.931 0.062-22.553 7.584-26.569 18.824L487.44 596.479l-56.75-122.885c-4.638-10.044-14.692-16.473-25.753-16.473l-0.028 0c-11.072 0.01-21.125 6.461-25.749 16.524l-23.413 50.958L98.866 524.603c-15.665 0-28.366 12.695-28.366 28.365 0 15.666 12.701 28.367 28.366 28.367L373.93 581.335c11.085 0 21.153-6.454 25.777-16.526l5.297-11.521 60.037 129.999c4.65 10.071 14.725 16.472 25.742 16.472 0.426 0 0.851-0.01 1.275-0.028 11.511-0.517 21.57-7.942 25.448-18.794l72.817-203.757 31.585 85.608c4.107 11.143 14.729 18.547 26.612 18.547l277.563 0c15.67 0 28.37-12.701 28.37-28.367C954.453 537.303 941.748 524.603 926.083 524.603L926.083 524.603zM926.083 524.603" p-id="5851"></path><path d="M755.913 626.229c-11.998-10.077-29.89-8.525-39.967 3.473L512.491 871.835 309.026 629.702c-10.078-11.998-27.974-13.55-39.966-3.473-11.994 10.084-13.546 27.974-3.467 39.967l225.182 267.981c5.387 6.414 13.334 10.12 21.717 10.12 8.377 0 16.324-3.706 21.712-10.12L759.38 666.196C769.458 654.203 767.905 636.313 755.913 626.229L755.913 626.229zM755.913 626.229" p-id="5852"></path></svg>