<?xml version="1.0" standalone="no"?><!DOCTYPE svg PUBLIC "-//W3C//DTD SVG 1.1//EN" "http://www.w3.org/Graphics/SVG/1.1/DTD/svg11.dtd"><svg t="1550569529566" class="icon" style="" viewBox="0 0 1036 1024" version="1.1" xmlns="http://www.w3.org/2000/svg" p-id="52611" xmlns:xlink="http://www.w3.org/1999/xlink" width="18.2109375" height="18"><defs><style type="text/css"></style></defs><path d="M1010.526 804.429c0-3.493-1.497-6.987-3.992-9.482-2.994-2.994-5.988-3.992-9.481-3.992h-20.46c-8.484 0-17.466-6.487-20.46-14.97l-10.48-25.95c-3.992-7.485-2.495-18.464 3.992-24.951l14.971-14.97c2.495-2.496 3.992-5.99 3.992-9.482 0-3.993-1.497-6.987-3.992-9.482L939.665 666.2c-2.495-2.495-5.989-3.992-9.482-3.992s-6.986 1.497-9.481 3.992l-14.971 14.97c-5.988 5.989-16.967 7.486-24.951 3.993l-25.95-10.48c-8.483-2.495-14.97-11.477-14.97-20.46v-20.46c0-3.493-1.497-6.986-3.993-9.481-2.994-2.994-5.988-3.993-9.481-3.993h-34.932c-3.493 0-6.986 1.498-9.481 3.993-2.994 2.994-3.992 5.988-3.992 9.481v20.46c0 8.484-6.488 17.466-14.971 20.46l-25.95 10.48c-7.485 3.992-18.464 2.495-24.95-3.992l-14.972-14.971c-2.495-2.495-5.988-3.992-9.481-3.992-3.992 0-6.986 1.497-9.482 3.992l-24.95 24.951c-2.496 2.495-3.993 5.988-3.993 9.482 0 3.992 1.497 6.986 3.992 9.481l14.97 14.97c5.99 5.99 7.486 16.968 3.993 24.952l-10.48 25.95c-2.495 8.483-11.477 14.97-20.46 14.97h-22.456c-3.493 0-6.986 1.497-9.481 3.992-2.994 2.995-3.992 5.989-3.992 9.482v34.932c0 3.493 1.497 6.986 3.992 9.481 2.994 2.994 5.988 3.992 9.481 3.992h20.46c8.484 0 17.466 6.488 19.961 14.971l10.48 25.95c3.992 7.485 2.495 18.463-3.992 24.95l-14.971 14.971c-2.495 2.496-3.992 5.989-3.992 9.482 0 3.992 1.497 6.986 3.992 9.481l24.951 24.952c2.495 2.495 5.989 3.992 9.482 3.992 3.992 0 6.986-1.497 9.481-3.992l14.971-14.971c5.988-5.988 16.967-7.485 24.951-3.493l25.95 10.48c8.483 2.494 14.97 11.477 14.97 20.46v20.46c0 3.492 1.497 6.986 3.993 9.48 2.994 2.995 5.988 3.993 9.481 3.993h34.932c3.493 0 6.986-1.497 9.481-3.992 2.994-2.994 3.993-5.989 3.993-9.482v-20.46c0-8.483 6.487-17.466 14.97-20.46l25.95-10.48c7.485-3.991 18.464-2.494 24.95 3.494l14.473 14.97c2.495 2.496 5.988 3.993 9.481 3.993 3.992 0 6.986-1.497 9.482-3.992l24.95-24.952c2.496-2.495 3.993-5.988 3.993-9.481 0-3.992-1.497-6.986-3.992-9.482l-14.97-14.97c-5.99-5.989-7.486-16.967-3.993-24.952l10.48-25.949c2.495-8.483 11.477-14.97 20.46-14.97h20.46c3.493 0 6.986-1.498 9.481-3.993 2.994-2.994 3.992-5.988 3.992-9.481l2.994-34.932zM886.27 822.394c0 42.916-34.932 77.848-77.848 77.848s-77.848-34.932-77.848-77.848 34.932-77.848 77.848-77.848 77.848 34.932 77.848 77.848zM690.152 444.133H307.899c-14.971 0-27.447 11.976-27.447 27.446 0 14.97 11.977 27.446 27.447 27.446h382.253c14.97 0 27.446-11.976 27.446-27.446-0.499-15.47-12.475-27.446-27.446-27.446z m0 136.233H307.899c-14.971 0-27.447 11.977-27.447 27.447 0 14.97 11.977 27.446 27.447 27.446h330.354c20.96-18.963 45.412-34.432 71.86-45.91-4.99-5.49-11.977-8.983-19.961-8.983zM307.899 716.6c-14.971 0-27.447 11.977-27.447 27.447 0 14.97 11.977 27.446 27.447 27.446h252.506c3.993-18.963 9.981-37.427 17.965-54.394H307.9z m-81.84 163.68c-29.942 0-54.394-24.452-54.394-54.393V279.953c0-29.941 24.452-54.394 54.393-54.394h81.84v109.287h382.254V225.559h81.84c29.942 0 54.394 24.453 54.394 54.394v289.934c18.963 1.497 36.928 4.99 54.394 9.98V279.953c0-60.382-48.905-109.286-109.287-109.286h-81.84v-54.394h-73.357c-23.454-32.437-67.368-54.394-117.27-54.394-50.402 0-93.817 21.957-117.272 54.394h-73.356v54.394h-81.84c-60.383 0-109.287 48.904-109.287 109.286v545.934c0 60.382 48.904 109.286 109.287 109.286h355.805c-8.484-16.966-15.47-35.43-19.961-54.393H226.058zM362.79 171.167h60.882c0-29.942 33.933-54.394 75.851-54.394s75.852 24.452 75.852 54.394h60.881v109.286H363.29V171.166z" p-id="52612" fill="#ffffff"></path></svg>