<?xml version="1.0" standalone="no"?><!DOCTYPE svg PUBLIC "-//W3C//DTD SVG 1.1//EN" "http://www.w3.org/Graphics/SVG/1.1/DTD/svg11.dtd"><svg t="1550569649824" class="icon" style="" viewBox="0 0 1024 1024" version="1.1" xmlns="http://www.w3.org/2000/svg" p-id="56366" xmlns:xlink="http://www.w3.org/1999/xlink" width="18" height="18"><defs><style type="text/css"></style></defs><path d="M870.4 422.4V243.2a89.6 89.6 0 0 0-89.536-89.6h-89.6a44.8 44.8 0 0 1-44.8 44.8H377.6a44.8 44.8 0 0 1-44.8-44.8H243.2a89.6 89.6 0 0 0-89.6 89.6v582.4a89.6 89.6 0 0 0 89.6 89.536h134.4V960H243.2a134.4 134.4 0 0 1-134.4-134.4V243.2c0-74.24 60.16-134.4 134.4-134.4h89.6a44.8 44.8 0 0 1 44.8-44.8h268.8c24.832 0 44.8 20.032 44.8 44.8h89.6a134.4 134.4 0 0 1 134.4 134.4v179.2h-44.8z m-224-313.6H377.6v44.8h268.8v-44.8z m-358.4 627.2h179.2v44.8H288v-44.8z m0-224h268.8v44.8H288V512z m0-224h448v44.8h-448v-44.8z m425.6 313.6a156.8 156.8 0 1 1 0 313.6 156.8 156.8 0 0 1 0-313.6z m0 268.8a112 112 0 1 0 0-224 112 112 0 0 0 0 224z m200.896 53.376l-35.52 35.584-52.672-52.672 35.52-35.52 52.672 52.608z" p-id="56367" fill="#ffffff"></path></svg>