<?xml version="1.0" standalone="no"?><!DOCTYPE svg PUBLIC "-//W3C//DTD SVG 1.1//EN" "http://www.w3.org/Graphics/SVG/1.1/DTD/svg11.dtd"><svg t="1550569460842" class="icon" style="" viewBox="0 0 1024 1024" version="1.1" xmlns="http://www.w3.org/2000/svg" p-id="51796" xmlns:xlink="http://www.w3.org/1999/xlink" width="18" height="18"><defs><style type="text/css"></style></defs><path d="M833.82272 1024H190.17728C119.07072 1024 61.44 966.69696 61.44 896V256c0-70.69696 57.63072-128 128.73728-128H286.72V64v36.20864s0.34816-29.65504 26.66496-36.20864h60.02688C401.28512 25.9072 452.58752 0 512 0c59.41248 0 110.71488 25.9072 138.58816 64h60.02688C736.93184 70.5536 737.28 100.20864 737.28 100.20864V64 128h96.54272C904.92928 128 962.56 185.30304 962.56 256v640c0 70.69696-57.63072 128-128.73728 128zM672.91136 128h-71.51616c0-35.34848-40.01792-64-89.3952-64-49.37728 0-89.3952 28.65152-89.3952 64h-71.51616v128h321.82272V128z m225.28 128a64.18432 64.18432 0 0 0-64.36864-64H737.28v128-35.04128s-0.3072 26.70592-22.79424 35.04128H309.51424C287.0272 311.66464 286.72 284.95872 286.72 284.95872V192H190.17728A64.18432 64.18432 0 0 0 125.80864 256v640a64.18432 64.18432 0 0 0 64.36864 64h643.64544a64.18432 64.18432 0 0 0 64.36864-64V256zM737.28 832H286.72a32.07168 32.07168 0 0 1-32.17408-31.98976c0-17.67424 14.39744-32.01024 32.17408-32.01024h450.56c17.77664 0 32.17408 14.336 32.17408 32.01024s-14.39744 31.98976-32.17408 31.98976z m0-159.98976H286.72c-17.77664 0-32.17408-14.336-32.17408-32.01024s14.39744-32.01024 32.17408-32.01024h450.56c17.77664 0 32.17408 14.336 32.17408 32.01024s-14.39744 32.01024-32.17408 32.01024zM737.28 512H286.72c-17.77664 0-32.17408-14.336-32.17408-31.98976 0-17.67424 14.39744-32.01024 32.17408-32.01024h450.56c17.77664 0 32.17408 14.336 32.17408 32.01024C769.45408 497.664 755.05664 512 737.28 512z" p-id="51797" fill="#ffffff"></path></svg>