<?xml version="1.0" standalone="no"?><!DOCTYPE svg PUBLIC "-//W3C//DTD SVG 1.1//EN" "http://www.w3.org/Graphics/SVG/1.1/DTD/svg11.dtd"><svg t="1550568441474" class="icon" style="" viewBox="0 0 1101 1024" version="1.1" xmlns="http://www.w3.org/2000/svg" p-id="32797" xmlns:xlink="http://www.w3.org/1999/xlink" width="19.353515625" height="18"><defs><style type="text/css"></style></defs><path d="M812.137931 166.664828c22.598621 0 40.96-18.361379 40.96-40.96v-84.744828c0-22.598621-18.361379-40.96-40.96-40.96-22.598621 0-40.96 18.361379-40.96 40.96v83.332414c0 22.598621 18.361379 42.372414 40.96 42.372414zM289.544828 166.664828c22.598621 0 40.96-18.361379 40.96-40.96v-84.744828c0-22.598621-18.361379-40.96-40.96-40.96-22.598621 0-40.96 18.361379-40.96 40.96v83.332414c0 22.598621 18.361379 42.372414 40.96 42.372414zM536.717241 830.49931c38.135172 0 69.208276-31.073103 69.208276-69.208276S574.852414 692.082759 536.717241 692.082759s-69.208276 31.073103-69.208275 69.208275c1.412414 38.135172 31.073103 69.208276 69.208275 69.208276zM261.296552 830.49931c38.135172 0 69.208276-31.073103 69.208276-69.208276S299.431724 692.082759 261.296552 692.082759s-69.208276 31.073103-69.208276 69.208275c1.412414 38.135172 31.073103 69.208276 69.208276 69.208276zM812.137931 608.750345c38.135172 0 69.208276-31.073103 69.208276-69.208276s-31.073103-69.208276-69.208276-69.208276-69.208276 31.073103-69.208276 69.208276c1.412414 38.135172 31.073103 69.208276 69.208276 69.208276zM536.717241 608.750345c38.135172 0 69.208276-31.073103 69.208276-69.208276s-31.073103-69.208276-69.208276-69.208276-69.208276 31.073103-69.208275 69.208276c1.412414 38.135172 31.073103 69.208276 69.208275 69.208276zM261.296552 608.750345c38.135172 0 69.208276-31.073103 69.208276-69.208276s-31.073103-69.208276-69.208276-69.208276-69.208276 31.073103-69.208276 69.208276c1.412414 38.135172 31.073103 69.208276 69.208276 69.208276z" p-id="32798" fill="#ffffff"></path><path d="M991.514483 55.084138h-83.332414v55.084138h83.332414c31.073103 0 55.084138 25.423448 55.084138 55.084138v110.168276H55.084138v-110.168276c0-31.073103 24.011034-55.084138 55.084138-55.084138h83.332414V55.084138H110.168276C49.434483 55.084138 0 104.518621 0 166.664828v747.166896c0 60.733793 49.434483 110.168276 110.168276 110.168276h881.346207c60.733793 0 110.168276-49.434483 110.168276-110.168276V166.664828c0-62.146207-49.434483-111.58069-110.168276-111.58069z m55.084138 857.335172c0 31.073103-25.423448 55.084138-55.084138 55.084138H110.168276c-31.073103 0-55.084138-25.423448-55.084138-55.084138V331.917241h991.514483v580.502069z" p-id="32799" fill="#ffffff"></path><path d="M385.588966 55.084138h330.504827v55.084138H385.588966z" p-id="32800" fill="#ffffff"></path></svg>