<?xml version="1.0" standalone="no"?><!DOCTYPE svg PUBLIC "-//W3C//DTD SVG 1.1//EN" "http://www.w3.org/Graphics/SVG/1.1/DTD/svg11.dtd"><svg t="1531624313517" class="icon" style="" viewBox="0 0 1161 1024" version="1.1" xmlns="http://www.w3.org/2000/svg" p-id="6359" xmlns:xlink="http://www.w3.org/1999/xlink" width="226.7578125" height="200"><defs><style type="text/css"></style></defs><path d="M1061.385 586.959118L580.785226 1022.548037v1.451963-1.451963l-1.451963 1.451963v-2.903926l-480.599775-435.588919c-133.580602-135.032565-133.580602-351.375061 0-484.955664 130.676676-132.128639 345.567209-133.580602 479.147811-2.903926l2.903927 2.903926c130.676676-133.580602 345.567209-133.580602 477.695848-2.903926l2.903926 2.903926c132.128639 135.032565 132.128639 351.375061 0 486.407627z" fill="#d81e06" p-id="6360" data-spm-anchor-id="a313x.7781069.0.i23" class="selected"></path><path d="M348.471135 171.697681h-7.259815c-95.829562 0-174.235568 78.406005-174.235568 174.235568v7.259815c0 15.971594-13.067668 29.039261-29.039261 29.039262s-29.039261-13.067668-29.039261-29.039262v-2.903926-4.355889c0-127.77275 104.541341-232.31409 232.31409-232.31409h7.259815c15.971594 0 29.039261 13.067668 29.039262 29.039261s-13.067668 29.039261-29.039262 29.039261z" fill="#AFFCFE" p-id="6361"></path></svg>