<?xml version="1.0" standalone="no"?><!DOCTYPE svg PUBLIC "-//W3C//DTD SVG 1.1//EN" "http://www.w3.org/Graphics/SVG/1.1/DTD/svg11.dtd"><svg t="1550629130401" class="icon" style="" viewBox="0 0 1034 1024" version="1.1" xmlns="http://www.w3.org/2000/svg" p-id="37796" xmlns:xlink="http://www.w3.org/1999/xlink" width="18.17578125" height="18"><defs><style type="text/css"></style></defs><path d="M1020.674 315.923L777.657 558.43c-17.395 17.395-43.488 17.395-60.883 0L475.292 315.923c-17.395-17.395-17.395-43.487 0-60.882L717.798 13.046c17.395-17.395 43.487-17.395 60.882 0l241.994 243.018c16.884 15.86 16.884 43.487 0 59.86z m-624.683 707.565H53.208c-24.046 0-42.976-18.93-42.976-42.975V637.218c0-24.046 18.93-42.976 42.976-42.976h343.295c24.046 0 42.975 18.93 42.975 42.976v343.295c-0.511 24.046-19.441 42.975-43.487 42.975z m0-514.686H53.208c-24.046 0-42.976-18.93-42.976-42.975V123.044c0-24.046 18.93-42.976 42.976-42.976h343.295c24.046 0 42.975 18.93 42.975 42.976v342.783c-0.511 24.046-19.441 42.975-43.487 42.975z m171.903 85.952h342.783c24.046 0 42.976 18.93 42.976 42.976v343.294c0 24.046-18.93 42.976-42.976 42.976H567.894c-24.046 0-42.976-18.93-42.976-42.976V637.73c0-24.046 18.93-42.976 42.976-42.976z" p-id="37797" fill="#ffffff"></path></svg>