<?xml version="1.0" standalone="no"?><!DOCTYPE svg PUBLIC "-//W3C//DTD SVG 1.1//EN" "http://www.w3.org/Graphics/SVG/1.1/DTD/svg11.dtd"><svg t="1550569980342" class="icon" style="" viewBox="0 0 1024 1024" version="1.1" xmlns="http://www.w3.org/2000/svg" p-id="61338" xmlns:xlink="http://www.w3.org/1999/xlink" width="18" height="18"><defs><style type="text/css"></style></defs><path d="M105.265565 194.171657l363.816367-188.03992c12.263473-8.175649 24.526946-8.175649 36.790419 0l363.816368 188.03992c20.439122 12.263473 28.61477 36.790419 16.351297 53.141716-4.087824 8.175649-8.175649 12.263473-16.351297 16.351298l-363.816368 188.03992c-12.263473 8.175649-24.526946 8.175649-36.790419 0l-363.816367-188.03992c-20.439122-12.263473-28.61477-36.790419-16.351298-53.141717l16.351298-16.351297z" p-id="61339" fill="#ffffff"></path><path d="M571.277541 987.209581h-12.263473c-12.263473-4.087824-20.439122-8.175649-24.526946-20.439122-4.087824-4.087824-4.087824-12.263473-4.087825-20.439122v-425.133732c0-16.351297 8.175649-28.61477 20.439122-36.790419l339.289421-179.864272c8.175649-4.087824 20.439122-8.175649 32.702595-4.087824 12.263473 4.087824 20.439122 8.175649 24.526946 20.439122 4.087824 4.087824 4.087824 12.263473 4.087825 20.439121v425.133733c0 16.351297-8.175649 28.61477-20.439122 36.790419l-339.289421 179.864271c-4.087824 4.087824-12.263473 4.087824-20.439122 4.087825z m-8.175649-482.363274l8.175649 16.351298v425.133732l339.289421-179.864271v-425.133733l-339.289421 179.864272-8.175649-16.351298zM428.203689 991.297405c-4.087824 0-12.263473 0-16.351298-4.087824l-351.552894-188.03992c-12.263473-4.087824-20.439122-16.351297-20.439122-32.702595V329.06986c0-4.087824 0-12.263473 4.087825-16.351297 8.175649-16.351297 28.61477-24.526946 49.053892-12.263473l351.552894 188.03992c12.263473 4.087824 20.439122 16.351297 20.439122 32.702595v441.48503c0 4.087824 0 12.263473-4.087825 16.351297-8.175649 8.175649-20.439122 12.263473-32.702594 12.263473z m-343.377246-224.830339l339.289421 179.864271v-425.133732l-339.289421-179.864272v425.133733z" p-id="61340" fill="#ffffff"></path></svg>