<?xml version="1.0" standalone="no"?><!DOCTYPE svg PUBLIC "-//W3C//DTD SVG 1.1//EN" "http://www.w3.org/Graphics/SVG/1.1/DTD/svg11.dtd"><svg t="1550570101988" class="icon" style="" viewBox="0 0 1024 1024" version="1.1" xmlns="http://www.w3.org/2000/svg" p-id="65164" xmlns:xlink="http://www.w3.org/1999/xlink" width="18" height="18"><defs><style type="text/css"></style></defs><path d="M685.6 79.2c-143.2 0-273.6 43.2-273.6 105.6v186.4l-61.6-4c-143.2-6.4-268.8 48.8-268.8 97.6v392c0 56 124.8 92.8 268 92.8 149.6 0 268-37.6 268-87.2v-37.6H680c149.6 0 268-37.6 268-87.2V184.8c-0.8-46.4-78.4-105.6-262.4-105.6zM554.4 649.6C541.6 675.2 480 712 356 712S152 675.2 146.4 649.6V558.4c49.6 31.2 128.8 43.2 209.6 43.2s148.8-12 198.4-43.2v91.2zM349.6 429.6c124.8 0 192 40 204 52-12 24.8-80 62.4-204 62.4S152 506.4 146.4 481.6c12-19.2 79.2-52 203.2-52z m0 456.8c-118.4 0-184.8-24.8-203.2-43.2V726.4c49.6 31.2 122.4 43.2 203.2 43.2s153.6-12 203.2-43.2v116.8c-12 18.4-84.8 43.2-203.2 43.2z m536.8-160c-18.4 18.4-81.6 40-200 40l-62.4-1.6v-120c18.4 4 43.2 6.4 62.4 6.4 80.8 0 150.4-12 200-43.2v118.4z m-0.8-199.2c-12 24.8-75.2 62.4-200 62.4-24.8 0-43.2 0-62.4-6.4V481.6c22.4 3.2 43.2 1.6 62.4 1.6 80.8 0 150.4-12 200-43.2v87.2z m-200-100c-37.6 0-68.8 0-92.8-6.4-24.8-18.4-62.4-29.6-112-41.6l-4-0.8V278.4c49.6 31.2 124.8 45.6 205.6 45.6s155.2-14.4 204.8-45.6v88c-0.8-0.8-27.2 60.8-201.6 60.8z m200.8-232c-12 24.8-75.2 70.4-200 70.4s-204-45.6-210.4-70.4c12-18.4 85.6-60 210.4-60s187.2 48 200 60z" p-id="65165"></path></svg>