<?xml version="1.0" standalone="no"?><!DOCTYPE svg PUBLIC "-//W3C//DTD SVG 1.1//EN" "http://www.w3.org/Graphics/SVG/1.1/DTD/svg11.dtd"><svg t="1550629601195" class="icon" style="" viewBox="0 0 1024 1024" version="1.1" xmlns="http://www.w3.org/2000/svg" p-id="50158" xmlns:xlink="http://www.w3.org/1999/xlink" width="18" height="18"><defs><style type="text/css"></style></defs><path d="M1003.789474 6.090105c-18.593684-9.269895-31.528421-6.844632-46.457263 0L27.863579 468.453053C11.533474 477.776842 0 490.226526 0 505.478737c0 15.198316 6.844632 30.019368 18.593684 37.025684l223.124211 138.778947c18.539789 9.216 37.187368 9.216 55.781052-9.269894l487.100632-438.918737a8.407579 8.407579 0 0 1 11.048421-0.161684 7.006316 7.006316 0 0 1 0.592842 10.186105l-433.744842 465.650526c-9.216 9.269895-9.216 18.539789-9.216 27.809684v203.452632c0 18.539789 9.216 37.025684 27.809684 46.349474 18.647579 9.162105 37.187368 0 46.457263-9.32379l111.562106-111.023158 223.12421 147.941053c11.749053 9.269895 38.426947 11.371789 46.457263 9.269895 8.030316-2.101895 24.198737-18.324211 27.809685-37.025685l185.936842-924.725894c4.419368-20.372211 0-46.133895-18.647579-55.40379z" p-id="50159" fill="#ffffff"></path></svg>