<?xml version="1.0" standalone="no"?><!DOCTYPE svg PUBLIC "-//W3C//DTD SVG 1.1//EN" "http://www.w3.org/Graphics/SVG/1.1/DTD/svg11.dtd"><svg t="1550566961877" class="icon" style="" viewBox="0 0 1024 1024" version="1.1" xmlns="http://www.w3.org/2000/svg" p-id="9945" xmlns:xlink="http://www.w3.org/1999/xlink" width="16" height="16"><defs><style type="text/css"></style></defs><path d="M641.5896875000001 458.928125H381.3603125c-18.5990625 0-30.616875 11.93625-30.616875 30.409687499999993 0 12.538125 9.4434375 24.5315625 21.241875 28.89v1.935h269.6034375c15.737812499999999 0 30.616875-14.879999999999999 30.616875-30.61875 0.0009374999999999999-15.736875000000001-14.878124999999997-30.615937499999998-30.615937499999998-30.615937499999998z" p-id="9946" fill="#ffffff"></path><path d="M896.5053125 87.1746875H131.755625c-25.2853125 0-49.27875 9.64875-67.55999999999999 27.16875C46.37562500000007 131.42093749999998 34.997187499999995 154.91093750000005 32.155624999999986 180.48687499999994l-0.0571875 0.515625V701.975c0 47.430937500000006 46.569375 89.0371875 99.6571875 89.0371875h339.88875c5.3925 0 6.556874999999999 1.164375 6.556874999999999 6.556874999999999v74.92687499999998c-0.16218749999999998 0.474375-0.9074999999999999 1.2196875-1.381875 1.381875H253.9034375c-15.738749999999998 0-30.61875 14.8809375-30.61875 30.6196875 0 5.775 0 14.5040625 8.055 22.558125 4.4025 4.404375 9.0234375 6.159375000000001 13.188749999999999 6.8240625v0.5221875h524.51625c5.7768749999999995 0 14.5078125 0 22.561875-8.055 8.05875-8.0559375 8.05875-16.785 8.05875-22.5609375 0-15.738749999999998-14.8809375-30.61875-30.620625-30.61875H546.130625c-0.474375-0.16218749999999998-1.2215624999999999-0.9074999999999999-1.3846875-1.3828125v-75.8465625c0-5.3934375 1.164375-6.5578125 6.558750000000001-6.5578125h339.8878125c27.378749999999997 0 52.80656249999999-10.085624999999999 71.600625-28.396874999999994 17.8321875-17.3746875 28.058437499999997-40.8178125 28.058437499999997-64.3171875V181.52187500000002c0-52.905-41.44218749999999-94.3471875-94.34625-94.3471875z m38.4225 115.59v472.6565624999999c0 27.9403125-28.995937499999997 54.3553125-59.6653125 54.3553125H152.9975c-33.4565625 0-59.664375-23.876249999999995-59.664375-54.3553125V202.76468749999998c0-30.4790625 26.2078125-54.354375000000005 59.664375-54.354375000000005H875.2625c33.4575 0 59.6653125 23.8753125 59.6653125 54.354375000000005z" p-id="9947" fill="#ffffff"></path><path d="M705.3171875 294.29281249999997H317.631875c-15.738749999999998 0-30.61875 14.8809375-30.61875 30.6196875 0 15.737812499999999 14.879999999999999 30.6178125 30.61875 30.6178125h387.6853125c15.737812499999999 0 30.616875-14.879999999999999 30.616875-30.6178125 0-18.6-12.017812500000002-30.6196875-30.616875-30.6196875z" p-id="9948" fill="#ffffff"></path></svg>