<?xml version="1.0" standalone="no"?><!DOCTYPE svg PUBLIC "-//W3C//DTD SVG 1.1//EN" "http://www.w3.org/Graphics/SVG/1.1/DTD/svg11.dtd"><svg t="1550567701791" class="icon" style="" viewBox="0 0 1024 1024" version="1.1" xmlns="http://www.w3.org/2000/svg" p-id="16157" xmlns:xlink="http://www.w3.org/1999/xlink" width="18" height="18"><defs><style type="text/css"></style></defs><path d="M751.364653 153.361246 1005.614628 390.810676 1006.062912 1024 629.54239 1024 300.08636 1024 253.017671 1024 253.017671 978.159037 253.017671 907.986355 86.048044 907.986355C48.429566 907.986355 17.933273 877.487391 17.933273 839.862045L17.933273 68.128506C17.933273 30.50812 48.429566 0.004578 86.048044 0.004578L697.922698 0.004578C735.535454 0.004578 766.032128 30.50812 766.032128 68.128506L766.032128 136.252816 688.071129 136.183379 688.071129 97.912886C688.071129 85.321633 677.851777 75.180874 665.335684 75.180874L112.877945 75.252981C100.286312 75.252981 90.147841 85.467755 90.147841 97.982322L90.147841 805.550568C90.147841 818.137242 100.286312 828.285251 112.877945 828.285251L253.017671 828.285251 253.017671 657.273437 253.478545 657.273437 253.017671 153.026273 751.364653 153.361246ZM723.671376 198.864947 723.671376 428.069383 958.998419 428.069383 723.671376 198.864947ZM300.08636 657.273437 300.08636 748.954982 300.08636 978.159037 629.54239 978.159037 958.998419 978.159037 958.998419 473.911872 676.606883 473.911872C676.606883 473.911872 676.606883 399.400182 676.606883 382.230327L676.606883 198.864947 300.08636 198.864947 300.08636 657.273437ZM869.764314 624.41936 396.523151 624.41936 396.523151 577.132824 869.764314 577.132824 869.764314 624.41936ZM869.764314 719.019903 396.523151 719.019903 396.523151 671.72421 869.764314 671.72421 869.764314 719.019903ZM869.764314 813.592976 396.523151 813.592976 396.523151 766.30644 869.764314 766.30644 869.764314 813.592976Z" p-id="16158" fill="#ffffff"></path></svg>