<?xml version="1.0" standalone="no"?><!DOCTYPE svg PUBLIC "-//W3C//DTD SVG 1.1//EN" "http://www.w3.org/Graphics/SVG/1.1/DTD/svg11.dtd"><svg t="1549851559123" class="icon" style="" viewBox="0 0 1244 1024" version="1.1" xmlns="http://www.w3.org/2000/svg" p-id="4168" xmlns:xlink="http://www.w3.org/1999/xlink" width="242.96875" height="200"><defs><style type="text/css"></style></defs><path d="M578.799609 206.289303v525.376134l405.214074 197.416862c57.676158 28.097596 124.849521-13.899343 124.849522-78.056426V86.928867c0-64.143497-67.173363-106.140435-124.849522-78.056426zM491.979668 729.450781V208.517546H269.250513C130.977189 208.517546 10.16296 312.565607 0.638582 450.49926c-10.040679 145.623808 99.727444 267.769547 240.568682 278.081963a29.333999 29.333999 0 0 1 23.573177 14.279774l153.952544 266.655426a28.93998 28.93998 0 0 0 39.53772 10.597739l125.311474-72.349951a28.93998 28.93998 0 0 0 10.597739-39.53772l-103.23285-178.77571zM1108.863205 275.51428v65.841852a173.558362 173.558362 0 0 1 0 289.399805v65.841852a231.23452 231.23452 0 0 0 0-421.015575z" p-id="4169"></path></svg>