<?xml version="1.0" standalone="no"?><!DOCTYPE svg PUBLIC "-//W3C//DTD SVG 1.1//EN" "http://www.w3.org/Graphics/SVG/1.1/DTD/svg11.dtd"><svg t="1550570624200" class="icon" style="" viewBox="0 0 1024 1024" version="1.1" xmlns="http://www.w3.org/2000/svg" p-id="72984" xmlns:xlink="http://www.w3.org/1999/xlink" width="18" height="18"><defs><style type="text/css"></style></defs><path d="M882.814955 76.402087 780.249999 76.402087l0 0.00921c-25.075095 0.205685-45.341674 20.587897-45.341674 45.711088s20.266579 45.505403 45.341674 45.711088l0 0.00921 26.808576 0c33.724079 0 61.062727 27.338648 61.062727 61.062727l0 589.8296c0 33.723056-27.338648 61.062727-61.062727 61.062727L217.229998 879.797737c-33.724079 0-61.062727-27.339672-61.062727-61.062727L156.167271 228.90541c0-33.724079 27.338648-61.062727 61.062727-61.062727l26.808576 0 0-0.00921c0.12689 0.001023 0.251733 0.00921 0.379647 0.00921 25.251104 0 45.720298-20.469194 45.720298-45.720298s-20.469194-45.720298-45.720298-45.720298c-0.127913 0-0.252757 0.008186-0.379647 0.00921l0-0.00921L141.473617 76.402087c-42.386366 0-76.747965 34.361599-76.747965 76.747965l0 741.341339c0 42.386366 34.361599 76.747965 76.747965 76.747965l741.341339 0c42.387389 0 76.747965-34.361599 76.747965-76.747965L959.56292 153.150052C959.56292 110.762663 925.202345 76.402087 882.814955 76.402087z" p-id="72985" fill="#ffffff"></path><path d="M557.365722 659.1852c0 24.867364-20.158109 45.025473-45.025473 45.025473l0 0c-24.867364 0-45.025473-20.158109-45.025473-45.025473L467.314777 75.380828c0-24.867364 20.158109-45.025473 45.025473-45.025473l0 0c24.867364 0 45.025473 20.158109 45.025473 45.025473L557.365722 659.1852z" p-id="72986" fill="#ffffff"></path><path d="M544.178375 691.023326c-17.584494 17.58347-46.092781 17.58347-63.676252 0l0 0c-17.584494-17.584494-17.584494-46.092781 0-63.677275l174.568874-174.567851c17.58347-17.58347 46.090734-17.58347 63.675228 0l0 0c17.584494 17.58347 17.584494 46.091758 0 63.676252L544.178375 691.023326z" p-id="72987" fill="#ffffff"></path><path d="M480.768183 691.023326c17.584494 17.58347 46.092781 17.58347 63.676252 0l0 0c17.584494-17.584494 17.584494-46.092781 0-63.677275L369.87556 452.779224c-17.58347-17.58347-46.090734-17.58347-63.675228 0l0 0c-17.584494 17.58347-17.584494 46.091758 0 63.676252L480.768183 691.023326z" p-id="72988" fill="#ffffff"></path></svg>