<?xml version="1.0" standalone="no"?><!DOCTYPE svg PUBLIC "-//W3C//DTD SVG 1.1//EN" "http://www.w3.org/Graphics/SVG/1.1/DTD/svg11.dtd"><svg t="1550628870891" class="icon" style="" viewBox="0 0 1024 1024" version="1.1" xmlns="http://www.w3.org/2000/svg" p-id="32511" xmlns:xlink="http://www.w3.org/1999/xlink" width="18" height="18"><defs><style type="text/css"></style></defs><path d="M691.830154 839.128615c0 16.935385 13.312 30.247385 29.065846 30.247385h183.059692c44.268308 0 80.187077-37.415385 80.187077-82.944V424.487385c0-45.607385-35.918769-83.022769-80.187077-83.02277H720.896a29.696 29.696 0 0 0-29.065846 30.247385c0 16.935385 13.312 30.168615 29.065846 30.168615h183.059692c12.288 0 22.055385 10.24 22.055385 22.60677v361.944615a22.370462 22.370462 0 0 1-22.055385 22.528H720.896a29.696 29.696 0 0 0-29.065846 30.168615z m-271.596308 30.72h183.059692c44.268308 0 80.187077-37.336615 80.187077-82.86523V82.944C683.480615 36.864 647.561846 0 603.293538 0H420.233846c-44.268308 0-80.187077 37.336615-80.187077 82.944v704.512a81.368615 81.368615 0 0 0 80.187077 82.392615z m-22.134154-787.37723c0-12.288 9.846154-22.528 22.134154-22.528h183.059692c12.288 0 22.055385 10.24 22.055385 22.44923v704.59077a22.370462 22.370462 0 0 1-22.055385 22.528H420.233846a22.370462 22.370462 0 0 1-22.134154-22.528V82.392615z m-279.000615 787.37723h183.059692a29.696 29.696 0 0 0 28.987077-30.168615 29.696 29.696 0 0 0-28.987077-30.168615H119.099077a22.370462 22.370462 0 0 1-22.134154-22.528V287.744c0-12.288 9.846154-22.528 22.134154-22.528h183.059692a29.696 29.696 0 0 0 28.987077-30.168615 30.011077 30.011077 0 0 0-28.987077-30.247385H119.099077C74.830769 204.8 39.384615 242.136615 39.384615 287.744v498.688c0 46.08 35.446154 83.495385 79.714462 83.495385z m834.953846 91.687385c15.753846 0 29.617231 13.784615 30.562462 30.72 0 17.959385-13.312 31.744-30.011077 31.744H69.868308a30.72 30.72 0 0 1-29.932308-31.192615c0-17.408 13.233231-31.271385 29.932308-31.271385h884.263384z m-126.424615-336.344615c9.373538-5.671385 13.784615-12.366769 12.839384-20.48a29.144615 29.144615 0 0 0-11.342769-24.65477c-4.883692-3.544615-15.753846-8.113231-41.353846-8.11323-20.637538 0-22.606769-13.390769-22.606769-18.983385 0-6.144 2.914462-17.408 22.134154-18.432 15.753846-1.024 27.096615-3.072 33.949538-5.671385 14.729846-5.12 16.226462-14.257231 16.226462-20.48 0-4.568615-0.945231-11.185231-11.815385-16.384a53.878154 53.878154 0 0 0-25.048615-5.12c-15.281231 0-25.127385 6.695385-30.011077 21.504-3.465846 10.791385-9.373538 16.384-16.226462 16.384-12.366769 0-19.692308-7.089231-19.692308-20.48 0-16.856615 7.876923-30.72 23.079385-41.432615a74.043077 74.043077 0 0 1 43.323077-13.863385c20.164923 0 36.391385 4.647385 50.176 13.39077a54.744615 54.744615 0 0 1 25.127385 47.576615c0 17.880615-8.349538 32.295385-25.6 43.008 18.195692 10.712615 28.041846 28.672 28.041846 52.224a57.501538 57.501538 0 0 1-26.072616 49.624615 88.536615 88.536615 0 0 1-52.696615 16.384c-18.116923 0-33.870769-4.568615-47.655385-14.336a54.587077 54.587077 0 0 1-23.630769-45.528615c0-13.312 6.852923-21.504 19.692308-21.504 7.325538 0 12.760615 5.592615 16.226461 17.959385 4.411077 16.856615 15.202462 25.048615 35.91877 25.048615 9.452308 0 18.904615-2.678154 27.017846-7.719385zM217.481846 411.096615c13.784615-13.312 21.188923-25.521231 21.661539-36.864a21.425231 21.425231 0 0 0-9.373539-18.432 41.196308 41.196308 0 0 0-46.710154 2.599385 37.809231 37.809231 0 0 0-12.760615 22.055385c-2.993231 13.233231-8.428308 19.928615-16.777846 19.928615-12.288 0-19.692308-7.168-19.692308-20.48a65.378462 65.378462 0 0 1 20.716308-47.104 70.183385 70.183385 0 0 1 51.672615-20.952615c19.140923 0 34.894769 5.12 48.206769 15.28123 14.729846 11.815385 22.055385 28.199385 22.055385 47.655385 0 20.48-10.712615 41.432615-33.870769 61.44-17.250462 15.832615-29.065846 26.624-34.422154 31.744a335.635692 335.635692 0 0 0-22.685539 24.024615h71.364924c12.760615 0 20.637538 6.695385 20.637538 18.432 0 11.815385-7.876923 18.983385-20.637538 18.983385h-102.4c-20.637538 0-23.079385-13.312-23.079385-19.456 0-7.719385 5.435077-16.935385 17.250461-32.295385 8.349538-9.688615 18.668308-20.952615 32.925539-34.264615a787.692308 787.692308 0 0 1 35.918769-32.295385zM500.972308 174.08c-21.582769 10.24-36.391385 3.072-36.864-13.312 0-4.568615 1.969231-13.784615 16.226461-16.856615l5.907693-1.575385c4.411077-1.024 9.846154-5.12 16.226461-12.288 9.846154-11.264 13.784615-13.312 17.250462-13.312 11.815385 0 18.668308 7.168 18.668307 19.456v181.799385c0 12.760615-7.404308 20.48-19.140923 20.48-11.342769 0-18.274462-7.168-18.274461-20.48V174.08z" p-id="32512" fill="#ffffff"></path></svg>