<?xml version="1.0" standalone="no"?><!DOCTYPE svg PUBLIC "-//W3C//DTD SVG 1.1//EN" "http://www.w3.org/Graphics/SVG/1.1/DTD/svg11.dtd"><svg t="1562920821806" class="icon" viewBox="0 0 1024 1024" version="1.1" xmlns="http://www.w3.org/2000/svg" p-id="1169" width="200" height="200" xmlns:xlink="http://www.w3.org/1999/xlink"><defs><style type="text/css"></style></defs><path d="M430.440801 837.777037c32.134842 0 58.179188 26.04537 58.179188 58.179188s-26.044346 58.178165-58.179188 58.178165-58.178165-26.044346-58.178165-58.178165S398.306983 837.777037 430.440801 837.777037z" p-id="1170"></path><path d="M732.970943 837.777037c32.134842 0 58.178165 26.04537 58.178165 58.179188s-26.044346 58.178165-58.178165 58.178165-58.178165-26.044346-58.178165-58.178165S700.836101 837.777037 732.970943 837.777037z" p-id="1171"></path><path d="M802.785355 791.23512 383.89786 791.23512c-43.01029 0-81.476258-33.300105-87.661982-75.841423l-85.72056-559.313981c-0.018431-0.116731-0.035838-0.234486-0.052222-0.351217-1.181646-8.273573-10.198612-16.09558-18.554101-16.09558l-87.280046 0c-19.279062 0-34.906694-15.628656-34.906694-34.906694s15.628656-34.906694 34.906694-34.906694l87.280046 0c43.002098 0 81.458851 33.299081 87.639455 75.842447l85.721584 559.312957c0.017407 0.115707 0.034815 0.231414 0.051198 0.347121 1.18267 8.27562 10.210899 16.099676 18.577652 16.099676l418.887495 0c19.279062 0 34.907718 15.628656 34.907718 34.907718C837.693073 775.606465 822.064417 791.23512 802.785355 791.23512z" p-id="1172"></path><path d="M429.432204 651.357475c-18.331902 0-33.710712-14.297512-34.813514-32.837277-1.14376-19.244248 13.529544-35.772962 32.773792-36.916721l326.141566-19.385554c0.034815-0.002048 0.069629-0.004096 0.105468-0.006144 23.628832-1.333192 53.021517-22.622282 62.705078-45.110425l64.798046-240.445581c0.32869-1.220557 0.723938-2.421658 1.18267-3.599209 2.685839-6.887135 2.563988-11.906572 1.252299-13.826491-1.18779-1.736631-5.400349-3.489645-12.137986-3.489645l-487.792633 0c-19.279062 0-34.907718-15.628656-34.907718-34.906694s15.628656-34.906694 34.907718-34.906694l487.792633 0c29.616932 0 55.049976 12.361209 69.778573 33.913456 14.545309 21.286018 17.020213 49.114097 6.888159 76.638061l-64.914778 240.876667c-0.32869 1.220557-0.723938 2.422682-1.18267 3.600233-9.141888 23.442471-26.849176 45.639811-49.861586 62.506431-23.10047 16.931129-49.568734 27.034513-74.534854 28.452693l-326.077057 19.381458C430.830929 651.335972 430.128495 651.357475 429.432204 651.357475z" p-id="1173"></path></svg>