<?xml version="1.0" standalone="no"?><!DOCTYPE svg PUBLIC "-//W3C//DTD SVG 1.1//EN" "http://www.w3.org/Graphics/SVG/1.1/DTD/svg11.dtd"><svg t="1549851679605" class="icon" style="" viewBox="0 0 1024 1024" version="1.1" xmlns="http://www.w3.org/2000/svg" p-id="7166" xmlns:xlink="http://www.w3.org/1999/xlink" width="200" height="200"><defs><style type="text/css"></style></defs><path d="M959.956 549.819v171.431c0 9.888-2.617 19.099-7.829 27.611-5.222 8.519-12.364 14.97-21.43 19.366l-184.62 92.311c-6.87 3.844-14.701 5.77-23.488 5.77-8.796 0-16.625-1.925-23.488-5.77l-184.618-92.311c-1.1-0.554-2.060-1.1-2.884-1.649-0.557 0.547-1.514 1.093-2.886 1.649l-184.618 92.311c-6.87 3.844-14.701 5.77-23.489 5.77-8.795 0-16.625-1.925-23.488-5.77l-184.618-92.311c-9.067-4.398-16.213-10.85-21.429-19.366-5.221-8.512-7.829-17.721-7.829-27.611v-171.431c0-10.438 2.949-20.053 8.86-28.848 5.904-8.79 13.665-15.383 23.283-19.781l178.848-76.649v-164.839c0-10.438 2.949-20.051 8.861-28.848 5.903-8.789 13.665-15.382 23.283-19.781l184.618-79.122c6.317-2.742 13.186-4.121 20.605-4.121 7.417 0 14.284 1.379 20.604 4.121l184.62 79.122c9.614 4.398 17.374 10.992 23.282 19.781 5.904 8.795 8.861 18.41 8.861 28.848v164.837l178.848 76.649c9.891 4.398 17.721 10.992 23.488 19.781 5.767 8.796 8.654 18.411 8.654 28.849zM300.603 613.279l166.486-71.291-166.486-71.294-166.486 71.294 166.486 71.291zM326.977 800.373l158.245-79.122v-129.398l-158.245 67.583v140.938zM511.597 336.351l181.735-77.886-181.735-77.886-181.735 77.886 181.735 77.886zM537.97 492.537l158.244-67.997v-109.616l-158.244 67.583v110.029zM722.588 613.279l166.486-71.291-166.486-71.294-166.485 71.294 166.485 71.291zM748.964 800.373l158.243-79.122v-129.398l-158.243 67.583v140.938z" p-id="7167"></path></svg>