<?xml version="1.0" standalone="no"?><!DOCTYPE svg PUBLIC "-//W3C//DTD SVG 1.1//EN" "http://www.w3.org/Graphics/SVG/1.1/DTD/svg11.dtd"><svg t="1550568402061" class="icon" style="" viewBox="0 0 1109 1024" version="1.1" xmlns="http://www.w3.org/2000/svg" p-id="32011" xmlns:xlink="http://www.w3.org/1999/xlink" width="19.494140625" height="18"><defs><style type="text/css"></style></defs><path d="M456.028721 813.590444C456.028721 871.691923 503.132721 918.795923 561.234201 918.795923 619.33568 918.795923 666.43968 871.691923 666.43968 813.590444 666.43968 755.488964 619.33568 708.384964 561.234201 708.384964 552.635406 708.384964 544.317159 709.535211 536.307516 711.485019 462.411187 579.389019 332.812064 347.782663 330.174913 343.321951 320.299625 326.67143 298.781598 321.186718 282.11705 331.047978 215.599132 370.521074 129.358694 348.49806 89.899625 281.980142 70.79431 249.759211 65.365707 212.011485 74.637817 175.708581 83.909927 139.405677 106.760557 108.88206 138.981488 89.762718 205.485379 50.303649 291.725817 72.312636 331.198913 138.844581 341.074201 155.495101 362.578201 160.993841 379.256776 151.104526 395.907296 141.229238 401.392009 119.711211 391.516721 103.06069 332.321105 3.269786 202.974475-29.736679 103.197598 29.44491 54.859187 58.11691 20.590255 103.902334 6.675077 158.35669-7.226073 212.811047 0.909817 269.425622 29.581817 317.764033 68.858529 383.959321 138.995516 420.767211 210.899954 420.767211 234.213488 420.767211 257.695351 416.853567 280.377653 408.871978L476.817324 751.000197C463.813927 768.506389 456.028721 790.108581 456.028721 813.590444" p-id="32012" fill="#ffffff"></path><path d="M693.873061 650.433578 887.479198 315.094619C890.901883 315.431277 894.380677 315.613633 897.887527 315.613633 955.989006 315.613633 1003.093006 268.509633 1003.093006 210.408153 1003.093006 152.306674 955.989006 105.202674 897.887527 105.202674 839.786047 105.202674 792.682047 152.306674 792.682047 210.408153 792.682047 239.430838 804.437006 265.704153 823.430102 284.739332 748.229225 413.482784 616.077116 639.786784 614.393828 642.858784 605.121718 659.859989 611.391965 681.167605 628.39317 690.439715 696.299801 727.472044 721.422869 812.842784 684.39054 880.749414 666.449499 913.64366 636.767527 937.588427 600.829335 948.165085 564.877116 958.727715 526.961061 954.673797 494.066814 936.732756 461.172568 918.805742 437.227801 889.12377 426.66517 853.185578 416.088513 817.233359 420.142431 779.317304 438.083472 746.423058 447.355581 729.421852 441.085335 708.128263 424.084129 698.842126 407.082924 689.570016 385.775307 695.85429 376.503198 712.855496 349.59865 762.189852 343.510759 819.056921 359.375746 872.978236 375.240732 926.899551 411.150869 971.408482 460.485225 998.31303 491.836458 1015.412427 526.217609 1024.095386 560.949444 1024.095386 580.882376 1024.095386 600.955581 1021.233797 620.621992 1015.440482 674.52928 999.575496 719.052239 963.665359 745.956787 914.331003 795.235033 823.980537 771.037773 713.122016 693.873061 650.433578" p-id="32013" fill="#ffffff"></path><path d="M1040.631724 55.829041C999.363121 17.702575 945.778464-2.062027 889.528601 0.168329 833.362902 2.398685 781.433477 26.371507 743.307012 67.668164 714.073916 99.328 695.754135 138.268055 689.750409 180.027616L311.249148 180.027616C298.203669 136.739068 258.085313 105.205479 210.546464 105.205479 152.444984 105.205479 105.340984 152.309479 105.340984 210.410959 105.340984 268.512438 152.444984 315.616438 210.546464 315.616438 254.410135 315.616438 291.961477 288.768 307.756327 250.627507 455.647176 251.328877 720.554573 252.563288 724.089477 252.437041 743.433258 251.665534 758.498683 235.351671 757.727176 215.993863 756.240272 178.55474 769.426025 142.784877 794.843669 115.249096 820.261313 87.727342 854.880929 71.73611 892.320053 70.249205 929.871395 68.874521 965.529039 81.948055 993.050792 107.351671 1020.586573 132.769315 1036.563779 167.388932 1038.050683 204.842082 1041.122683 282.119014 980.748765 347.486685 903.471833 350.572712 884.114025 351.344219 869.062628 367.658082 869.820107 387.01589 870.577587 405.896767 886.105916 420.681644 904.832491 420.681644 905.32345 420.681644 905.786354 420.681644 906.263285 420.653589 1022.199724 416.038575 1112.760601 317.959014 1108.131559 202.036603 1105.901203 145.884932 1081.928381 93.955507 1040.631724 55.829041" p-id="32014" fill="#ffffff"></path></svg>