<?xml version="1.0" standalone="no"?><!DOCTYPE svg PUBLIC "-//W3C//DTD SVG 1.1//EN" "http://www.w3.org/Graphics/SVG/1.1/DTD/svg11.dtd"><svg t="1550628383761" class="icon" style="" viewBox="0 0 1024 1024" version="1.1" xmlns="http://www.w3.org/2000/svg" p-id="17385" xmlns:xlink="http://www.w3.org/1999/xlink" width="18" height="18"><defs><style type="text/css"></style></defs><path d="M398.664078 323.766928a212.912466 212.912466 0 1 0 289.503689 78.690921 212.403449 212.403449 0 0 0-289.503689-78.690921z m167.1168 289.503689a121.321134 121.321134 0 1 1 43.473273-165.207984 120.89165 120.89165 0 0 1-43.473273 165.160264z m316.545242-450.65544a45.859293 45.859293 0 0 0-27.343782-14.109328 45.286649 45.286649 0 0 0-28.775394 5.662819l-5.392404 3.181359a102.582928 102.582928 0 0 1-139.820738-38.17631 103.076039 103.076039 0 0 1-13.823006-56.341872 46.129709 46.129709 0 0 0-23.271643-42.821095 44.920792 44.920792 0 0 0-11.96191-4.692505A511.101266 511.101266 0 0 0 392.412707 13.50487a46.559192 46.559192 0 0 0-5.535565 1.797468 45.286649 45.286649 0 0 0-18.690486 13.934353 45.47753 45.47753 0 0 0-9.719052 32.37033 101.676241 101.676241 0 0 1-159.242936 92.832062 45.620691 45.620691 0 0 0-31.272761-8.541949 45.175301 45.175301 0 0 0-23.048948 9.003247 45.684318 45.684318 0 0 0-5.694633 5.121988 510.019604 510.019604 0 0 0-116.930858 205.64306 45.52525 45.52525 0 0 0-1.924722 16.288559 46.018361 46.018361 0 0 0 13.266268 29.602548 44.698097 44.698097 0 0 0 12.598182 9.003247 103.298734 103.298734 0 0 1 42.693841 40.546423 102.598835 102.598835 0 0 1-36.903767 140.15478 75.286866 75.286866 0 0 1-4.772039 2.576901q-1.320264 0.668085-2.608714 1.399798a44.125452 44.125452 0 0 0-5.344684 3.610843 44.936699 44.936699 0 0 0-12.184606 14.666066 45.588878 45.588878 0 0 0-5.058361 24.878229 44.539029 44.539029 0 0 0 2.03607 10.291697 519.786377 519.786377 0 0 0 116.596815 202.016311 45.747946 45.747946 0 0 0 56.771356 9.178221c0.986221-0.572645 5.440124-3.404054 7.094431-4.358462a103.17148 103.17148 0 0 1 153.643744 95.122641 45.382089 45.382089 0 0 0 1.177102 14.570625 46.018361 46.018361 0 0 0 19.692614 27.693732 44.539029 44.539029 0 0 0 14.634252 6.187744 510.608155 510.608155 0 0 0 237.011263 1.463425 45.795666 45.795666 0 0 0 6.362718-2.051976 43.616435 43.616435 0 0 0 5.631006-2.735969 45.82748 45.82748 0 0 0 19.183596-21.808218 45.111674 45.111674 0 0 0 3.32452-22.269514 101.692148 101.692148 0 0 1 159.258843-92.259418 45.668412 45.668412 0 0 0 49.645111 2.720062c1.065755-0.620365 2.131511-1.28845 3.181359-1.988349a45.302555 45.302555 0 0 0 7.603449-6.633134 509.526493 509.526493 0 0 0 117.296714-207.615503 44.650377 44.650377 0 0 0 1.431612-6.744482 46.034268 46.034268 0 0 0-11.786936-37.301437 44.793538 44.793538 0 0 0-13.329895-9.989468 103.155573 103.155573 0 0 1-4.962921-180.287627l5.535565-3.038198a45.620691 45.620691 0 0 0 16.78167-16.940738 46.129709 46.129709 0 0 0 3.944886-35.901638 520.677157 520.677157 0 0 0-117.392156-203.145694z m-24.655534 444.833553a194.062913 194.062913 0 0 0 46.431938 54.385336 413.831208 413.831208 0 0 1-63.531743 113.033693 192.472233 192.472233 0 0 0-265.37308 153.198354 415.421887 415.421887 0 0 1-127.683852-1.14529 195.128668 195.128668 0 0 0-261.730424-153.548303 428.990384 428.990384 0 0 1-63.277235-109.597825 193.044878 193.044878 0 0 0 45.42981-248.225553 194.396955 194.396955 0 0 0-47.497693-55.26021 414.721988 414.721988 0 0 1 62.847751-111.156691 192.472233 192.472233 0 0 0 265.277639-153.198354 415.533235 415.533235 0 0 1 129.656295 1.479332 194.206074 194.206074 0 0 0 23.860194 67.428909 193.537988 193.537988 0 0 0 235.706905 85.514936 430.167487 430.167487 0 0 1 63.627185 110.186377 193.569802 193.569802 0 0 0-43.74369 246.905289z" p-id="17386"></path></svg>