<?xml version="1.0" standalone="no"?><!DOCTYPE svg PUBLIC "-//W3C//DTD SVG 1.1//EN" "http://www.w3.org/Graphics/SVG/1.1/DTD/svg11.dtd"><svg t="1550628532652" class="icon" style="" viewBox="0 0 1024 1024" version="1.1" xmlns="http://www.w3.org/2000/svg" p-id="22878" xmlns:xlink="http://www.w3.org/1999/xlink" width="18" height="18"><defs><style type="text/css"></style></defs><path d="M512 0C229.23264 0 0 229.23264 0 512c0 282.76736 229.23264 512 512 512 282.76736 0 512-229.23264 512-512C1024 229.23264 794.76736 0 512 0zM320.4096 862.01344c-12.75904 12.75904-33.44896 12.75904-46.208 0l-46.8992-46.90432c-12.75904-12.75904-12.75904-33.44384 0-46.20288l196.01408-196.01408 93.11232 93.11232L320.4096 862.01344zM829.76768 766.44352l-89.00096 89.00096c-1.24416 1.44384-6.76352 7.2192-15.65696 7.2192l-0.00512 0c-18.14016 0-36.16256-23.26016-53.58592-69.13536L358.9632 480.96768c-21.04832 8.8832-43.46368 13.6448-65.86368 13.6448l-0.01024 0c-39.54688 0-75.99104-14.66368-102.6048-41.28256-39.75168-39.74656-51.8912-100.34176-31.68768-158.14144 0.56832-1.6128 1.92-2.82624 3.58912-3.20512 1.664-0.36864 3.40992 0.12288 4.61824 1.3312l71.0144 71.0144c9.14944 9.14944 21.8624 13.65504 34.86208 12.10368l37.82656-4.4544c19.5328-2.29376 34.77504-17.54112 37.07392-37.07904l4.4544-37.82144c1.52064-12.93824-2.8928-25.64608-12.10368-34.86208l-71.3728-71.3728c-1.2032-1.2032-1.71008-2.944-1.33632-4.608 0.37888-1.65888 1.57696-3.01568 3.1744-3.58912 18.57024-6.64064 37.66784-10.00448 56.76544-10.00448 39.5264 0 75.95008 14.65344 102.5536 41.25696 28.8256 28.82048 43.40224 68.4032 41.04192 111.44704-1.13664 20.75136-6.18496 41.10336-14.68416 60.2112l311.53152 311.5264c43.7504 14.52544 67.41504 30.65344 70.33344 47.9488C840.17152 757.07904 831.58528 764.93312 829.76768 766.44352zM864.16896 607.81056c-0.50176 1.67936-1.8432 2.97472-3.54304 3.39968-0.40448 0.1024-0.80896 0.1536-1.21856 0.1536-1.30048 0-2.57536-0.512-3.51232-1.45408l-55.31136-55.31648c-1.52064-1.51552-1.88928-3.84-0.92672-5.74976 8.41728-16.67584 2.11456-45.64992-15.31904-70.4512-12.43648-17.69984-28.9536-30.90944-44.2112-36.09088l-96.17408 96.17408-93.11232-93.11232 105.41056-105.40544-55.96672-55.96672c-5.36576 2.45248-11.15648 3.73248-16.96256 3.73248-10.02496 0-19.34336-3.79392-26.22976-10.68032l-18.34496-18.35008c-7.25504-7.25504-11.04384-17.07008-10.67008-27.65312 0.36864-10.4448 4.76672-20.39296 12.38016-28.0064l56.06912-56.07424c7.8848-7.8848 18.60096-12.40576 29.40416-12.40576 10.04032 0 19.36384 3.79904 26.26048 10.69568l18.35008 18.35008c10.39872 10.3936 13.45536 25.83552 8.19712 40.1408l49.06496 49.05984c78.5664 31.26272 136.43264 120.45824 147.54816 227.60448C879.86176 524.07808 876.00128 568.13056 864.16896 607.81056z" p-id="22879" fill="#ffffff"></path></svg>