<?xml version="1.0" standalone="no"?><!DOCTYPE svg PUBLIC "-//W3C//DTD SVG 1.1//EN" "http://www.w3.org/Graphics/SVG/1.1/DTD/svg11.dtd"><svg t="1550628590065" class="icon" style="" viewBox="0 0 1024 1024" version="1.1" xmlns="http://www.w3.org/2000/svg" p-id="23800" xmlns:xlink="http://www.w3.org/1999/xlink" width="18" height="18"><defs><style type="text/css"></style></defs><path d="M917.674 555.109L549.547 922.103c-45.18 45.043-118.433 45.043-163.613 0L99.614 636.664c-45.176-45.04-45.176-118.07 0-163.109l368.13-366.994c28.12-29.415 33.51-42.31 63.015-42.31h373.947c29.502 0 53.42 23.842 53.42 53.254V490.31c0 29.412-16.757 41.174-40.452 64.799zM140.52 595.883l286.317 285.443c22.592 22.518 59.216 22.518 81.807 0l40.468-40.343-367.26-367.861-41.332 41.21c-22.591 22.52-22.591 59.034 0 81.551z m764.186-451.741c0-14.71-11.96-26.636-26.711-26.636H557.468c-14.752 0-35.696 16.74-48.823 29.83l-285.88 285.002 367.678 367.44 286.326-285.447c14.406-14.362 27.938-35.947 27.938-50.652V144.142zM610.902 412.386c-45.183-45.04-45.183-118.066 0-163.109 45.176-45.042 118.433-45.042 163.61 0 45.182 45.043 45.182 118.068 0 163.11-45.177 45.042-118.435 45.042-163.61 0z m122.706-122.333c-22.588-22.516-59.212-22.516-81.806 0-22.591 22.527-22.591 59.04 0 81.559 22.594 22.515 59.218 22.515 81.806 0 22.592-22.52 22.592-59.032 0-81.559z" p-id="23801" fill="#ffffff"></path></svg>