<?xml version="1.0" standalone="no"?><!DOCTYPE svg PUBLIC "-//W3C//DTD SVG 1.1//EN" "http://www.w3.org/Graphics/SVG/1.1/DTD/svg11.dtd"><svg t="1550568092773" class="icon" style="" viewBox="0 0 1077 1024" version="1.1" xmlns="http://www.w3.org/2000/svg" p-id="24963" xmlns:xlink="http://www.w3.org/1999/xlink" width="18.931640625" height="18"><defs><style type="text/css"></style></defs><path d="M1024.431158 269.473684h-0.377263 0.377263zM1024 270.012632V269.473684v0.431158zM53.894737 269.473684h970.105263V53.894737H53.894737v215.578947zM0 53.355789C0 23.983158 24.522105 0 53.463579 0h970.967579c29.534316 0 53.463579 24.306526 53.463579 53.355789v216.656843c0 29.426526-24.522105 53.355789-53.463579 53.355789H53.463579A53.679158 53.679158 0 0 1 0 270.012632V53.355789zM53.894737 970.320842v-0.161684 0.161684z m0-0.161684L323.206737 970.105263 323.368421 484.998737 54.056421 485.052632 53.894737 970.159158zM0 484.837053C0 455.194947 23.605895 431.157895 54.056421 431.157895h269.150316A53.840842 53.840842 0 0 1 377.263158 484.837053v485.483789c0 29.642105-23.605895 53.679158-54.056421 53.679158H54.056421A53.840842 53.840842 0 0 1 0 970.320842V484.837053zM458.105263 458.105263c0-14.874947 11.856842-26.947368 26.624-26.947368h566.541474c14.713263 0 26.624 12.503579 26.624 26.947368 0 14.874947-11.856842 26.947368-26.624 26.947369H484.729263a27.055158 27.055158 0 0 1-26.624-26.947369zM458.105263 637.736421c0-14.874947 11.856842-26.947368 26.624-26.947368h566.541474c14.713263 0 26.624 12.503579 26.624 26.947368 0 14.874947-11.856842 26.947368-26.624 26.947368H484.729263a27.055158 27.055158 0 0 1-26.624-26.947368zM458.105263 817.421474c0-14.874947 11.856842-26.947368 26.624-26.947369h566.541474c14.713263 0 26.624 12.503579 26.624 26.947369 0 14.874947-11.856842 26.947368-26.624 26.947368H484.729263a27.055158 27.055158 0 0 1-26.624-26.947368zM458.105263 997.052632c0-14.874947 11.856842-26.947368 26.624-26.947369h566.541474c14.713263 0 26.624 12.503579 26.624 26.947369 0 14.874947-11.856842 26.947368-26.624 26.947368H484.729263a27.055158 27.055158 0 0 1-26.624-26.947368z" p-id="24964" fill="#ffffff"></path></svg>