<?xml version="1.0" standalone="no"?><!DOCTYPE svg PUBLIC "-//W3C//DTD SVG 1.1//EN" "http://www.w3.org/Graphics/SVG/1.1/DTD/svg11.dtd"><svg t="1550567549787" class="icon" style="" viewBox="0 0 1093 1024" version="1.1" xmlns="http://www.w3.org/2000/svg" p-id="11582" xmlns:xlink="http://www.w3.org/1999/xlink" width="19.212890625" height="18"><defs><style type="text/css"></style></defs><path d="M20.964693 361.724587 1042.896213 361.724587 1042.896213 24.82176 20.964693 24.82176Z" p-id="11583" fill="#ffffff"></path><path d="M1017.79456 505.79456 1051.927893 505.79456 1051.927893 437.527893 1017.79456 437.527893 471.661227 437.527893 437.527893 437.527893 437.527893 505.79456 471.661227 505.79456Z" p-id="11584" fill="#ffffff"></path><path d="M1017.79456 654.738773 1051.927893 654.738773 1051.927893 586.472107 1017.79456 586.472107 471.661227 586.472107 437.527893 586.472107 437.527893 654.738773 471.661227 654.738773Z" p-id="11585" fill="#ffffff"></path><path d="M1017.79456 803.682987 1051.927893 803.682987 1051.927893 735.41632 1017.79456 735.41632 471.661227 735.41632 437.527893 735.41632 437.527893 803.682987 471.661227 803.682987Z" p-id="11586" fill="#ffffff"></path><path d="M1017.79456 952.6272 1051.927893 952.6272 1051.927893 884.360533 1017.79456 884.360533 471.661227 884.360533 437.527893 884.360533 437.527893 952.6272 471.661227 952.6272Z" p-id="11587" fill="#ffffff"></path><path d="M20.964693 968.144213 361.608533 968.144213 361.608533 429.103787 20.964693 429.103787Z" p-id="11588" fill="#ffffff"></path></svg>