<?xml version="1.0" standalone="no"?><!DOCTYPE svg PUBLIC "-//W3C//DTD SVG 1.1//EN" "http://www.w3.org/Graphics/SVG/1.1/DTD/svg11.dtd"><svg t="1534230102055" class="icon" style="" viewBox="0 0 1024 1024" version="1.1" xmlns="http://www.w3.org/2000/svg" p-id="11180" xmlns:xlink="http://www.w3.org/1999/xlink" width="600" height="600"><defs><style type="text/css"></style></defs><path d="M816.03072 489.89696h43.5712a27.74016 27.74016 0 0 1 0 55.48032h-43.5712a27.74016 27.74016 0 0 1-27.74016-27.74016 27.72992 27.72992 0 0 1 27.74016-27.74016zM744.89344 684.71296l30.81216 30.81216a27.73504 27.73504 0 1 1-39.22944 39.22944l-30.81216-30.81216a27.73504 27.73504 0 1 1 39.22944-39.22944zM538.61888 753.90464a27.74016 27.74016 0 0 1 27.74016 27.74016v43.5712a27.74016 27.74016 0 0 1-55.48032 0v-43.5712a27.74016 27.74016 0 0 1 27.74016-27.74016zM775.70048 319.75936l-30.80704 30.80704a27.73504 27.73504 0 1 1-39.22944-39.22944l30.80704-30.80704a27.73504 27.73504 0 1 1 39.22944 39.22944zM426.78272 637.76256l81.72544-81.76128a68.85888 68.85888 0 0 0 20.15744-48.68096v-195.4304a42.06592 42.06592 0 0 1 84.13184 0v228.8896c0 18.13504-7.15264 35.53792-19.91168 48.43008-27.04384 27.32544-75.3664 76.1856-106.5984 107.76576-16.36352 16.54784-43.0336 16.59392-59.4944 0.14336a41.96864 41.96864 0 0 1-0.01024-59.35616z" fill="#1581FF" p-id="11181"></path><path d="M561.54112 98.96448c0 20.48 15.49824 37.72416 35.88608 39.67488 196.06528 18.74944 348.4672 189.50656 337.65376 392.74496-10.08128 189.5168-163.3024 342.92736-352.81408 353.21344-198.45632 10.77248-365.93152-134.19008-391.36256-323.5072l28.61568 28.22656a40.04864 40.04864 0 0 0 56.44288-0.19456 40.04352 40.04352 0 0 0 0-56.63744L175.54944 432.07168a38.53824 38.53824 0 0 0-54.46656-0.03584L20.25472 532.608A39.89504 39.89504 0 0 0 76.63104 589.056l33.28-33.28c22.53824 229.36576 216.47872 409.216 451.64544 409.216 250.2656 0 453.90848-203.63264 453.90848-453.91872-0.02048-235.63776-180.49536-429.93152-410.4704-451.88096-23.32672-2.23744-43.45344 16.3328-43.45344 39.77216z" fill="#1581FF" p-id="11182"></path><path d="M567.9616 589.45024c-24.66304 0-44.83584-20.17792-44.83584-44.83584V307.88608c0-24.65792 20.17792-44.83584 44.83584-44.83584s44.83584 20.17792 44.83584 44.83584V544.6144c0 24.65792-20.17792 44.83584-44.83584 44.83584z" fill="#1581FF" p-id="11183"></path></svg>