<?xml version="1.0" standalone="no"?><!DOCTYPE svg PUBLIC "-//W3C//DTD SVG 1.1//EN" "http://www.w3.org/Graphics/SVG/1.1/DTD/svg11.dtd"><svg t="1522986855288" class="icon" style="" viewBox="0 0 1024 1024" version="1.1" xmlns="http://www.w3.org/2000/svg" p-id="2460" xmlns:xlink="http://www.w3.org/1999/xlink" width="200" height="200"><defs><style type="text/css"></style></defs><path d="M822.305 437.054l-338.286 405.915-246.809-211.559 41.325-48.214 197.921 169.632 297.021-356.469 48.829 40.697zM130.814 780.953c0 96.916 72.18 175.779 160.931 175.779h440.512c88.748 0 160.931-78.863 160.931-175.779v-442.605c0-85.925-56.786-157.525-131.503-172.686 4.079 29.579 4.45 53.43 4.45 60.447h31.763v63.538h-571.795v-63.538h31.775c0-7.018 0.359-30.868 4.45-60.447-74.725 15.161-131.514 86.762-131.514 172.686v442.605zM956.724 338.348v442.605c0 131.966-100.692 239.305-224.466 239.305h-440.514c-123.775 0-224.466-107.337-224.466-239.305v-442.605c0-126.807 93.046-230.578 210.131-238.525 16.903-50.224 48.378-96.080 107.535-96.080h254.128c59.147 0 90.62 45.856 107.523 96.080 117.083 7.947 210.13 111.717 210.13 238.525zM702.596 226.109c-0.103-51.851-15.764-158.828-63.525-158.828h-254.128c-47.772 0-63.433 106.977-63.538 158.828h381.191z" p-id="2461"></path></svg>