<?xml version="1.0" standalone="no"?><!DOCTYPE svg PUBLIC "-//W3C//DTD SVG 1.1//EN" "http://www.w3.org/Graphics/SVG/1.1/DTD/svg11.dtd"><svg t="1535957718076" class="icon" style="" viewBox="0 0 1024 1024" version="1.1" xmlns="http://www.w3.org/2000/svg" p-id="8446" xmlns:xlink="http://www.w3.org/1999/xlink" width="200" height="200"><defs><style type="text/css"></style></defs><path d="M784.5 387.3h0.5c-21.9-114.7-114.2-203-229.8-219.9-115.6-16.8-229.2 41.5-283 145.2C152 320.7 60.6 423.8 67.2 544c6.6 120.2 108.6 212.9 228.9 207.7h475.7c98-0.3 178.3-78.1 181.8-176.1 3.3-98-71.4-181.1-169.1-188.3z m-110 108.3h-74.6c-5.6 0-10.1 4.6-10.1 10.1v126.1c0 5.6-4.6 10.1-10.1 10.1H453.6c-5.6 0-10.1-4.6-10.1-10.1v-126c0-5.6-4.6-10.1-10.1-10.1h-75.6c-9.1 0-13.6-10.9-7.2-17.3L509 319.8c4-4 10.4-4 14.4 0l158.5 158.5c6.2 6.4 1.7 17.3-7.4 17.3z m0 0" p-id="8447"></path></svg>