<?xml version="1.0" standalone="no"?><!DOCTYPE svg PUBLIC "-//W3C//DTD SVG 1.1//EN" "http://www.w3.org/Graphics/SVG/1.1/DTD/svg11.dtd"><svg t="1550628119087" class="icon" style="" viewBox="0 0 1024 1024" version="1.1" xmlns="http://www.w3.org/2000/svg" p-id="10982" xmlns:xlink="http://www.w3.org/1999/xlink" width="18" height="18"><defs><style type="text/css"></style></defs><path d="M70.616615 515.938462 228.824615 515.938462l0 70.616615L70.616615 586.555077l0 415.940923L0 1002.496 0 21.543385l70.616615 0L70.616615 515.938462zM1024 272.226462l0 487.266462c0 40.96-35.997538 74.24-79.793231 74.24L326.971077 833.732923c-43.795692 0-79.793231-33.28-79.793231-74.24L247.177846 272.226462c0-40.920615 35.997538-74.121846 79.793231-74.121846l617.235692 0C988.002462 198.104615 1024 231.305846 1024 272.226462zM447.054769 402.195692 376.438154 402.195692l0 211.889231 70.616615 0L447.054769 402.195692zM588.288 402.195692l-70.616615 0 0 211.889231 70.616615 0L588.288 402.195692zM729.481846 402.195692l-70.616615 0 0 211.889231 70.616615 0L729.481846 402.195692zM870.754462 402.195692l-70.616615 0 0 211.889231 70.616615 0L870.754462 402.195692z" p-id="10983" fill="#ffffff"></path></svg>