<?xml version="1.0" standalone="no"?><!DOCTYPE svg PUBLIC "-//W3C//DTD SVG 1.1//EN" "http://www.w3.org/Graphics/SVG/1.1/DTD/svg11.dtd"><svg t="1550644859227" class="icon" style="" viewBox="0 0 1024 1024" version="1.1" xmlns="http://www.w3.org/2000/svg" p-id="2144" xmlns:xlink="http://www.w3.org/1999/xlink" width="14" height="14"><defs><style type="text/css"></style></defs><path d="M344.746667 597.333333c8.533333-3.413333 18.773333-6.826667 30.72-13.653333 18.773333-11.946667 32.426667-34.133333-1.706667-63.146667-110.933333-160.426667-69.973333-266.24-54.613333-307.2-15.36-5.12-32.426667-8.533333-47.786667-8.533333h-5.12c-105.813333 0-134.826667 97.28-136.533333 151.893333-1.706667 128 76.8 179.2 76.8 179.2s5.12 6.826667 5.12 25.6c0 5.12-3.413333 17.066667-8.533334 22.186667C158.72 619.52 13.653333 655.36 3.413333 732.16c-5.12 22.186667-1.706667 44.373333-1.706666 66.56 23.893333 18.773333 100.693333 34.133333 100.693333 34.133333s6.826667-18.773333 13.653333-51.2c8.533333-49.493333 71.68-124.586667 228.693334-184.32z m675.84 133.12c-10.24-76.8-160.426667-112.64-204.8-148.48-5.12-3.413333-8.533333-17.066667-8.533334-22.186666 0-18.773333 5.12-25.6 5.12-25.6s80.213333-51.2 78.506667-179.2c-1.706667-54.613333-35.84-150.186667-139.946667-150.186667h-5.12c-22.186667 0-40.96 5.12-58.026666 11.946667 22.186667 75.093333 49.493333 211.626667-63.146667 303.786666-44.373333 66.56 102.4 104.106667 80.213333 93.866667 133.12 59.733333 168.96 105.813333 179.2 153.6 8.533333 39.253333 13.653333 63.146667 13.653334 63.146667s100.693333-15.36 126.293333-34.133334c-1.706667-22.186667 1.706667-44.373333-3.413333-66.56z m-435.2-146.773333c-6.826667-5.12-10.24-22.186667-10.24-27.306667 0-23.893333 6.826667-32.426667 6.826666-32.426666s98.986667-52.906667 97.28-221.866667c-3.413333-68.266667-44.373333-187.733333-172.373333-187.733333h-6.826667c-133.12 0-168.96 119.466667-172.373333 187.733333-1.706667 158.72 97.28 221.866667 97.28 221.866667s11.946667 13.653333 11.946667 37.546666c0 5.12-10.24 17.066667-15.36 22.186667C363.52 628.053333 165.546667 672.426667 153.6 768c-10.24 40.96-68.266667 104.106667 126.293333 129.706667 54.613333 6.826667 126.293333 11.946667 225.28 11.946666 452.266667 0 360.106667-87.04 346.453334-139.946666-11.946667-95.573333-211.626667-141.653333-266.24-186.026667z m0 0" p-id="2145"></path></svg>