<?xml version="1.0" standalone="no"?><!DOCTYPE svg PUBLIC "-//W3C//DTD SVG 1.1//EN" "http://www.w3.org/Graphics/SVG/1.1/DTD/svg11.dtd"><svg t="1553058770428" class="icon" style="" viewBox="0 0 1025 1024" version="1.1" xmlns="http://www.w3.org/2000/svg" p-id="9308" xmlns:xlink="http://www.w3.org/1999/xlink" width="55.0537109375" height="55"><defs><style type="text/css"></style></defs><path d="M1012.8168 375c0 0-467.5-328.75-471.25-331.25C512.8168 23.75 512.8168 23.75 482.8168 45L12.8168 375c-15 10-16.25 32.5-5 48.75s33.75 21.25 47.5 11.25l32.5-23.75 0 546.25c0 20 16.25 37.5 37.5 37.5s37.5-16.25 37.5-37.5L162.8168 361.25 512.8168 113.75l356.25 251.25 0 593.75c0 20 16.25 37.5 37.5 37.5 20 0 37.5-16.25 37.5-37.5L944.0668 418.75l25 16.25c15 10 35 5 47.5-11.25C1029.0668 406.25 1025.3168 385 1012.8168 375L1012.8168 375 1012.8168 375zM321.5668 657.5c0 8.75 6.25 16.25 16.25 16.25l356.25 0c8.75 0 16.25-6.25 16.25-16.25L710.3168 625c0-8.75-6.25-16.25-16.25-16.25l-356.25 0c-8.75 0-16.25 6.25-16.25 16.25L321.5668 657.5 321.5668 657.5zM321.5668 780c0 8.75 6.25 16.25 16.25 16.25l356.25 0c8.75 0 16.25-6.25 16.25-16.25l0-32.5c0-8.75-6.25-16.25-16.25-16.25L337.8168 731.25c-8.75 0-16.25 6.25-16.25 16.25L321.5668 780 321.5668 780zM337.8168 547.5l356.25 0c8.75 0 16.25-6.25 16.25-16.25l0-32.5c0-8.75-6.25-16.25-16.25-16.25L337.8168 482.5c-8.75 0-16.25 6.25-16.25 16.25l0 32.5C321.5668 538.75 327.8168 547.5 337.8168 547.5L337.8168 547.5zM321.5668 897.5c0 8.75 6.25 16.25 16.25 16.25l356.25 0c8.75 0 16.25-6.25 16.25-16.25l0-32.5c0-8.75-6.25-16.25-16.25-16.25L337.8168 848.75c-8.75 0-16.25 6.25-16.25 16.25L321.5668 897.5 321.5668 897.5z" p-id="9309"></path></svg>