<?xml version="1.0" standalone="no"?><!DOCTYPE svg PUBLIC "-//W3C//DTD SVG 1.1//EN" "http://www.w3.org/Graphics/SVG/1.1/DTD/svg11.dtd"><svg t="1550567611818" class="icon" style="" viewBox="0 0 1063 1024" version="1.1" xmlns="http://www.w3.org/2000/svg" p-id="12366" xmlns:xlink="http://www.w3.org/1999/xlink" width="18.685546875" height="18"><defs><style type="text/css"></style></defs><path d="M549.261507 306.272353v0.093091h3.863255c144.010982 0 260.886087 118.318008 260.886087 264.37698v324.65307H288.37542v-324.792706c0-145.919337 116.735469-264.37698 260.886087-264.37698zM1062.702082 447.025168a44.264526 44.264526 0 0 1-7.773055 32.069672 42.263081 42.263081 0 0 1-27.880601 17.035559l-124.043073 19.08355a42.402716 42.402716 0 0 1-41.145994-14.894478 43.752528 43.752528 0 0 1-6.516334-43.752528 42.681988 42.681988 0 0 1 34.908932-26.577334l123.996527-19.083549a42.635443 42.635443 0 0 1 48.453598 36.119108z m-309.432775-155.833473a41.425266 41.425266 0 0 1-13.823937-25.972246 43.007805 43.007805 0 0 1 10.053772-34.862387l82.850533-95.557384a42.263081 42.263081 0 0 1 59.019368-2.653079c17.035559 15.35993 19.17664 41.751083 4.747615 59.671002l-82.850533 95.557384a42.16999 42.16999 0 0 1-60.043363 3.81671z m-196.886378-77.870192a42.868169 42.868169 0 0 1-41.518357-44.171436l-0.279271-127.068513A42.775078 42.775078 0 0 1 558.012013 0.004655a43.007805 43.007805 0 0 1 41.564902 44.171435l0.372361 127.068513a42.961259 42.961259 0 0 1-43.566347 42.123445z m-338.337371-37.701647a43.473257 43.473257 0 0 1 6.65597-60.508816 42.123445 42.123445 0 0 1 59.764092 6.749061l78.335644 99.327548a43.519802 43.519802 0 0 1-6.65597 60.555361 41.983809 41.983809 0 0 1-59.577911-6.702515L217.999013 175.712947z m28.252962 288.952869c-4.654524 23.272621-26.996241 38.399825-49.80341 33.838391l-123.065622-25.04134a43.287076 43.287076 0 1 1-21.084995-73.401849 42.0769 42.0769 0 0 1 37.701647-11.077767l123.019077 25.04134a43.05435 43.05435 0 0 1 33.279849 50.641225z m517.257286 113.570393c-0.139636-116.735469-93.555938-211.408494-208.80196-211.408494H551.169862a22.527898 22.527898 0 0 0-22.341717 22.667533c0 12.42758 10.053772 22.620988 22.341717 22.620988h3.630529c90.670133 0 163.978891 74.472389 164.118527 166.166518a22.807169 22.807169 0 0 0 11.170858 19.549002 21.969355 21.969355 0 0 0 22.341716 0 22.667533 22.667533 0 0 0 11.170859-19.549002zM256.724655 922.019373h588.657688l33.047122 102.027172H223.724077l33.047123-102.027172z" p-id="12367" fill="#ffffff"></path></svg>