<?xml version="1.0" standalone="no"?><!DOCTYPE svg PUBLIC "-//W3C//DTD SVG 1.1//EN" "http://www.w3.org/Graphics/SVG/1.1/DTD/svg11.dtd"><svg t="1550565296819" class="icon" style="" viewBox="0 0 1024 1024" version="1.1" xmlns="http://www.w3.org/2000/svg" p-id="1482" xmlns:xlink="http://www.w3.org/1999/xlink" width="14" height="14"><defs><style type="text/css"></style></defs><path d="M114.8875 433C172.7125 235.375 299.4875 94.425 531.3 74.325c15.9625-1.4 38.3125-0.1375 56.5375-3.5875 15.7-3.1 34.8625-14.35 52.95-21.85 73.4375-30 235.7375-82.85 317.6875-18.0625 71.1 56.3375 58 193.3 14.1 282.6375 35 70.575 61 168.8875 45.9 278.975-205.9375 8.45-445.9375 1.125-645.9875 3.6625 6.7125 106.25 73.6625 187.7125 172.9875 199.2125 97.05 11.25 164.1625-43.4375 208.2625-105h247.05c-64.1875 183.85-227.3625 326.4625-480 307.975-57.5-4.2625-102.2375-20.95-151.825-39.9125C286.1375 1003.5125 103 1070.5625 30.125 976.3875c-55.3375-71.4375-19.7875-201.4125 10.575-286.1625C102.1625 518.6 219.1625 348.5125 333.6375 251.8625c0.6625-3 3.525-3.6625 3.525-7.25C246.7375 290.65 185.75 366.9375 114.8875 433z m868.275-268.075c-3.4-123.325-162.9-111.25-247.1125-61.6 94.05 37.5 162.7 101.1125 218.8375 177.5 12.2375-38.75 29.5375-70.85 28.275-115.875zM372.4875 465.5875h391.825c-11.375-251.975-379.5125-231.6125-391.825 0zM83.0375 907.6375c19.65 111.55 176.25 79.0875 247.1125 29-92.95-51.9875-150.8625-139.85-197.6875-239.175-21.725 53.75-62.3875 136.5-49.425 210.2z" p-id="1483"></path></svg>