<?xml version="1.0" standalone="no"?><!DOCTYPE svg PUBLIC "-//W3C//DTD SVG 1.1//EN" "http://www.w3.org/Graphics/SVG/1.1/DTD/svg11.dtd"><svg t="1550628651370" class="icon" style="" viewBox="0 0 1152 1024" version="1.1" xmlns="http://www.w3.org/2000/svg" p-id="24376" xmlns:xlink="http://www.w3.org/1999/xlink" width="20.25" height="18"><defs><style type="text/css"></style></defs><path d="M251.776 284.8c0-23.168 12.608-44.544 33.152-56.064 20.48-11.584 45.76-11.584 66.24 0 20.48 11.52 33.088 32.896 33.088 56.064 0 23.104-12.608 44.48-33.088 56.064-20.48 11.52-45.76 11.52-66.24 0a64.512 64.512 0 0 1-33.152-56.064z m295.552 0c0-23.168 12.608-44.544 33.152-56.064 20.48-11.584 45.76-11.584 66.24 0 20.48 11.52 33.152 32.896 33.152 56.064 0 23.104-12.672 44.48-33.152 56.064-20.48 11.52-45.76 11.52-66.24 0a64.512 64.512 0 0 1-33.152-56.064z m364.736 253.312a49.664 49.664 0 0 0-25.984 7.36 48.96 48.96 0 0 0-24.192 42.24v5.056c2.304 24.192 24.192 43.328 50.176 43.328a49.6 49.6 0 0 0 50.112-48.96 49.92 49.92 0 0 0-50.112-49.024z m-175.168 49.024c0-1.728 0-3.968-0.64-5.632v-1.728c0-1.088-0.512-2.816-0.512-3.904 0-0.576 0-1.152-0.64-1.728-0.512-1.088-0.512-2.816-1.088-3.904 0-0.576 0-0.576-0.64-1.152-0.512-1.664-1.088-3.392-2.24-4.48a50.048 50.048 0 0 0-44.352-26.496 49.6 49.6 0 0 0-50.176 49.024c0 12.352 4.608 23.68 12.736 32.064l0.512 0.576 3.52 3.392 0.512 0.576c1.152 1.088 2.944 2.24 4.032 3.328 2.944 2.24 6.4 3.968 10.432 5.12 0.576 0 0.576 0.512 1.152 0.512a10.88 10.88 0 0 0 4.032 1.152c0.576 0 1.152 0.576 1.728 0.576 1.152 0.512 2.88 0.512 4.032 0.512h1.728c1.728 0 4.032 0.64 5.76 0.64a48.448 48.448 0 0 0 50.112-48.448z m-302.656 154.24c-2.688 0-2.688 0 0 0-2.688 0-2.688 0 0 0z m601.664 164.416l-0.64 0.512 0.64-0.512c70.848-56.32 115.84-137.408 115.84-228.608 0-135.68-99.136-249.984-238.016-290.496v-0.576h-0.576C902.272 172.16 702.912 1.024 456.832 1.024 204.608 1.024 0 181.184 0 403.584 0 522.88 59.328 630.4 153.28 704.192l-65.728 105.856a32.448 32.448 0 0 0-2.304 31.552c5.76 11.84 17.28 19.136 29.952 19.136 2.304 0 4.608 0 6.912-0.576l279.488-56.832c17.28 1.664 35.712 2.816 54.144 2.816 9.792 0 22.4-0.64 32.832-1.152 0 0 0 0.576 0.576 0.576h0.576c54.72 105.28 175.744 178.432 315.136 178.432 14.976 0 29.44-0.512 43.776-2.24h2.304c0.64 0 1.152-0.576 1.728-0.576l208 42.24a24.96 24.96 0 0 0 28.224-14.08 26.24 26.24 0 0 0-1.728-23.68l-51.264-79.872zM846.912 373.76c0 2.56 0 2.56 0 0 0 2.56 0 2.56 0 0z m-416 368.768s-0.512 0 0 0h1.792-0.64c-1.088-0.64-1.088 0-1.088 0-16.704-2.304-16.704-1.728-29.952-3.968-1.152-0.576-1.728-0.576-1.728-0.576l-215.488 43.904c-0.64 0-0.64-0.512-0.64-0.512l25.984-41.152 15.552-25.28-0.64 0.512c0-0.512 0.64-0.512 0.64-0.512s0-1.152 0.576-1.152a31.296 31.296 0 0 0-9.216-43.904c-0.64-0.576-1.728-1.152-2.304-1.728-89.344-61.888-146.944-157.056-146.944-264 0-186.368 175.168-337.792 390.656-337.792 203.392 0 371.008 135.68 388.864 307.968a338.048 338.048 0 0 0-40.896-2.304c-191.872 0-347.392 136.832-347.392 306.304 0 21.952 2.88 42.752 7.488 63.616h-8.064c-12.672-0.576-20.736 0.576-26.496 0.576z m550.272 170.56a31.296 31.296 0 0 0 3.456 4.48l28.8 46.208s0 0.576-0.64 0.576l-163.584-33.28 6.912 1.728c3.456 1.152 6.912 1.664 10.944 2.816-4.032-1.152-8.064-1.664-11.52-2.816l-6.336-1.664h-0.576s-0.576 0-1.152 0.512a92.928 92.928 0 0 1-21.888 2.816h2.304-2.88 0.64-20.224c-112.896 0-210.88-54.592-261.568-135.04h-2.304 1.728c-11.52-19.2-20.736-40.064-27.072-61.44a235.2 235.2 0 0 1-8.64-60.8c0.576-141.888 133.632-256.704 297.28-256.704 14.4 0 28.8 1.088 42.624 2.816v-0.576a346.24 346.24 0 0 1 64.576 14.656l0.512 0.576c110.656 37.12 188.992 130.56 188.992 239.232 0 81.088-43.776 153.728-111.744 200.96-0.64 0.64-1.152 0.64-1.728 1.152a25.216 25.216 0 0 0-6.912 33.792z" p-id="24377" fill="#ffffff"></path></svg>